<svg version="1.1" id="svg2" xml:space="preserve" viewBox="169.11917098445593 116.16 496.7875647668394 479.42400000000004" xmlns="http://www.w3.org/2000/svg" style="max-height: 500px" width="496.7875647668394" height="479.42400000000004"><metadata id="metadata8">image/svg+xml</metadata><defs id="defs6"/><g id="g10" transform="matrix(1.3333333,0,0,-1.3333333,0,1056)"><g id="g12" transform="translate(259.662,469.838)"><g id="g14"><g id="g16"><g id="g18"><g id="g20"><g id="g22"><path d="m -59.52824,0 c 0,14.09015 -11.42203,25.51216 -25.51218,25.51216 -14.09015,0 -25.51218,-11.42201 -25.51218,-25.51216 0,-14.09015 11.42203,-25.51216 25.51218,-25.51216 14.09015,0 25.51218,11.42201 25.51218,25.51216 z" style="fill:none;stroke:#000000;stroke-width:0.79701;stroke-linecap:butt;stroke-linejoin:miter;stroke-miterlimit:10;stroke-dasharray:none;stroke-opacity:1" id="path24"/></g><g id="g26" transform="translate(-93.895,-8.122)"><g id="g28"><g id="g30" transform="translate(-165.767,-461.716)"><text transform="matrix(1,0,0,-1,172.132,473.671)" style="font-variant:normal;font-weight:normal;font-size:9.96259975px;font-family:CMR10;-inkscape-font-specification:CMR10;writing-mode:lr-tb;fill:#000000;fill-opacity:1;fill-rule:nonzero;stroke:none" id="text36"><tspan x="0" y="0" id="tspan32">a</tspan><tspan x="-6.3649998 -1.3837 6.3652101" y="11.955" id="tspan34">a=2</tspan></text>
<g id="g38" transform="translate(165.767,461.716)"/></g></g><g id="g40" transform="translate(93.895,8.122)"/></g></g><g id="g42"><g id="g44"><path d="m 28.15236,85.04042 c 0,15.54831 -12.60405,28.15236 -28.15236,28.15236 -15.54831,0 -28.15236,-12.60405 -28.15236,-28.15236 0,-15.54831 12.60405,-28.15236 28.15236,-28.15236 15.54831,0 28.15236,12.60405 28.15236,28.15236 z" style="fill:none;stroke:#000000;stroke-width:0.79701;stroke-linecap:butt;stroke-linejoin:miter;stroke-miterlimit:10;stroke-dasharray:none;stroke-opacity:1" id="path46"/></g><g id="g48" transform="translate(-21.862,75.603)"><g id="g50"><g id="g52" transform="translate(-237.8,-545.441)"><text transform="matrix(1,0,0,-1,237.8,557.396)" style="font-variant:normal;font-weight:normal;font-size:9.96259975px;font-family:CMR10;-inkscape-font-specification:CMR10;writing-mode:lr-tb;fill:#000000;fill-opacity:1;fill-rule:nonzero;stroke:none" id="text58"><tspan x="0 7.744925 18.821344 27.12019 38.186646" y="0" id="tspan54">c=a+b</tspan><tspan x="9.9619999 17.706924 28.783344" y="11.955" id="tspan56">c=3</tspan></text>
<g id="g60" transform="translate(237.8,545.441)"/></g></g><g id="g62" transform="translate(21.862,-75.603)"/></g></g><g id="g64"><g id="g66"><path d="m 111.9236,170.08086 c 0,14.84733 -12.03583,26.88318 -26.88318,26.88318 -14.84735,0 -26.88318,-12.03585 -26.88318,-26.88318 0,-14.84736 12.03583,-26.88318 26.88318,-26.88318 14.84735,0 26.88318,12.03582 26.88318,26.88318 z" style="fill:none;stroke:#000000;stroke-width:0.79701;stroke-linecap:butt;stroke-linejoin:miter;stroke-miterlimit:10;stroke-dasharray:none;stroke-opacity:1" id="path68"/></g><g id="g70" transform="translate(64.837,160.365)"><g id="g72"><g id="g74" transform="translate(-324.499,-630.203)"><text transform="matrix(1,0,0,-1,324.499,642.158)" style="font-variant:normal;font-weight:normal;font-size:9.96259975px;font-family:CMR10;-inkscape-font-specification:CMR10;writing-mode:lr-tb;fill:#000000;fill-opacity:1;fill-rule:nonzero;stroke:none" id="text80"><tspan x="0 7.744925 18.821344 26.566269 34.865116" y="0" id="tspan76">e=c*d</tspan><tspan x="8.302 16.046925 27.123344" y="11.955" id="tspan78">e=6</tspan></text>
<g id="g82" transform="translate(324.499,630.203)"/></g></g><g id="g84" transform="translate(-64.837,-160.365)"/></g></g><g id="g86"><g id="g88"><path d="m 198.72697,85.04042 c 0,15.82101 -12.8251,28.64612 -28.64611,28.64612 -15.82103,0 -28.64614,-12.82511 -28.64614,-28.64612 0,-15.82102 12.82511,-28.64612 28.64614,-28.64612 15.82101,0 28.64611,12.8251 28.64611,28.64612 z" style="fill:none;stroke:#000000;stroke-width:0.79701;stroke-linecap:butt;stroke-linejoin:miter;stroke-miterlimit:10;stroke-dasharray:none;stroke-opacity:1" id="path90"/></g><g id="g92" transform="translate(147.663,75.603)"><g id="g94"><g id="g96" transform="translate(-407.325,-545.441)"><text transform="matrix(1,0,0,-1,407.325,557.396)" style="font-variant:normal;font-weight:normal;font-size:9.96259975px;font-family:CMR10;-inkscape-font-specification:CMR10;writing-mode:lr-tb;fill:#000000;fill-opacity:1;fill-rule:nonzero;stroke:none" id="text102"><tspan x="0 8.852766 19.929186 28.781952 39.848408" y="0" id="tspan98">d=b+1</tspan><tspan x="9.9619999 18.814766 29.891186" y="11.955" id="tspan100">d=2</tspan></text>
<g id="g104" transform="translate(407.325,545.441)"/></g></g><g id="g106" transform="translate(-147.663,-75.603)"/></g></g><g id="g108"><g id="g110"><path d="m 110.5526,0 c 0,14.09015 -11.42203,25.51216 -25.51218,25.51216 C 70.95027,25.51216 59.52824,14.09015 59.52824,0 c 0,-14.09015 11.42203,-25.51216 25.51218,-25.51216 14.09015,0 25.51218,11.42201 25.51218,25.51216 z" style="fill:none;stroke:#000000;stroke-width:0.79701;stroke-linecap:butt;stroke-linejoin:miter;stroke-miterlimit:10;stroke-dasharray:none;stroke-opacity:1" id="path112"/></g><g id="g114" transform="translate(72.586,-9.437)"><g id="g116"><g id="g118" transform="translate(-332.248,-460.401)"><text transform="matrix(1,0,0,-1,341.934,472.356)" style="font-variant:normal;font-weight:normal;font-size:9.96259975px;font-family:CMR10;-inkscape-font-specification:CMR10;writing-mode:lr-tb;fill:#000000;fill-opacity:1;fill-rule:nonzero;stroke:none" id="text124"><tspan x="0" y="0" id="tspan120">b</tspan><tspan x="-9.6859999 -0.83323365 10.243185" y="11.955" id="tspan122">b=1</tspan></text>
<g id="g126" transform="translate(332.248,460.401)"/></g></g><g id="g128" transform="translate(-72.586,9.437)"/></g></g></g><g id="g130"><g id="g132"><g id="g134"><path d="m -66.7188,18.32161 42.8839,42.88391" style="fill:none;stroke:#ff0000;stroke-width:1.19553006;stroke-linecap:butt;stroke-linejoin:miter;stroke-miterlimit:10;stroke-dasharray:none;stroke-opacity:1" id="path136"/><g id="g138"><g id="g140" transform="matrix(0.7071,0.7071,-0.7071,0.7071,-26.1061,58.93433)"><g id="g142"><path d="M 6.66628,0 1.93044,1.79556 3.5108,0 1.93044,-1.79556 Z" style="fill:#000000;fill-opacity:1;fill-rule:nonzero;stroke:#000000;stroke-width:1.19553006;stroke-linecap:butt;stroke-linejoin:miter;stroke-miterlimit:10;stroke-dasharray:none;stroke-opacity:1" id="path144"/></g></g></g><g id="g146"><g id="g148"><path d="m -17.48138,41.58675 c 0,14.34427 -11.62801,25.97227 -25.97228,25.97227 -14.34427,0 -25.97227,-11.628 -25.97227,-25.97227 0,-14.34427 11.628,-25.97228 25.97227,-25.97228 14.34427,0 25.97228,11.62801 25.97228,25.97228 z" style="fill:#ffffff;fill-opacity:1;fill-rule:nonzero;stroke:none" id="path150"/></g><g id="g152" transform="translate(-63.163,37.776)"><g id="g154"><g id="g156" transform="translate(-196.499,-507.614)"><text transform="matrix(1,0,0,-1,198.172,513.263)" style="font-variant:normal;font-weight:normal;font-size:9.96259975px;font-family:CMMI10;-inkscape-font-specification:CMMI10;writing-mode:lr-tb;fill:#000000;fill-opacity:1;fill-rule:nonzero;stroke:none" id="text160"><tspan x="0 5.8470497" y="0" id="tspan158">∂c</tspan></text>
<g id="g162" transform="translate(197.695,511.201)"><path d="M 0,0 H 11.109" style="fill:none;stroke:#000000;stroke-width:0.398;stroke-linecap:butt;stroke-linejoin:miter;stroke-miterlimit:10;stroke-dasharray:none;stroke-opacity:1" id="path164"/></g><text transform="matrix(1,0,0,-1,197.695,502.667)" style="font-variant:normal;font-weight:normal;font-size:9.96259975px;font-family:CMMI10;-inkscape-font-specification:CMMI10;writing-mode:lr-tb;fill:#000000;fill-opacity:1;fill-rule:nonzero;stroke:none" id="text168"><tspan x="0 5.8470497" y="0" id="tspan166">∂a</tspan></text>
<text transform="matrix(1,0,0,-1,213.984,507.614)" style="font-variant:normal;font-weight:normal;font-size:14.34619999px;font-family:CMR12;-inkscape-font-specification:CMR12;writing-mode:lr-tb;fill:#000000;fill-opacity:1;fill-rule:nonzero;stroke:none" id="text172"><tspan x="0 14.91431" y="0" id="tspan170">=1</tspan></text>
<g id="g174" transform="translate(196.499,507.614)"/></g></g><g id="g176" transform="translate(63.163,-37.776)"/></g></g></g></g><g id="g178"><g id="g180"><path d="M 66.7188,18.32161 23.8349,61.20552" style="fill:none;stroke:#ff0000;stroke-width:1.19553006;stroke-linecap:butt;stroke-linejoin:miter;stroke-miterlimit:10;stroke-dasharray:none;stroke-opacity:1" id="path182"/><g id="g184"><g id="g186" transform="matrix(-0.7071,0.7071,-0.7071,-0.7071,26.1061,58.93433)"><g id="g188"><path d="M 6.66628,0 1.93044,1.79556 3.5108,0 1.93044,-1.79556 Z" style="fill:#000000;fill-opacity:1;fill-rule:nonzero;stroke:#000000;stroke-width:1.19553006;stroke-linecap:butt;stroke-linejoin:miter;stroke-miterlimit:10;stroke-dasharray:none;stroke-opacity:1" id="path190"/></g></g></g><g id="g192"><g id="g194"><path d="m 69.00029,41.58675 c 0,14.10919 -11.43744,25.54663 -25.54663,25.54663 -14.10918,0 -25.54662,-11.43744 -25.54662,-25.54663 0,-14.10918 11.43744,-25.54662 25.54662,-25.54662 14.10919,0 25.54663,11.43744 25.54663,25.54662 z" style="fill:#ffffff;fill-opacity:1;fill-rule:nonzero;stroke:none" id="path196"/></g><g id="g198" transform="translate(24.221,37.776)"><g id="g200"><g id="g202" transform="translate(-283.883,-507.614)"><text transform="matrix(1,0,0,-1,285.079,513.263)" style="font-variant:normal;font-weight:normal;font-size:9.96259975px;font-family:CMMI10;-inkscape-font-specification:CMMI10;writing-mode:lr-tb;fill:#000000;fill-opacity:1;fill-rule:nonzero;stroke:none" id="text206"><tspan x="0 5.8470497" y="0" id="tspan204">∂c</tspan></text>
<g id="g208" transform="translate(285.079,511.201)"><path d="M 0,0 H 10.154" style="fill:none;stroke:#000000;stroke-width:0.398;stroke-linecap:butt;stroke-linejoin:miter;stroke-miterlimit:10;stroke-dasharray:none;stroke-opacity:1" id="path210"/></g><text transform="matrix(1,0,0,-1,285.096,502.667)" style="font-variant:normal;font-weight:normal;font-size:9.96259975px;font-family:CMMI10;-inkscape-font-specification:CMMI10;writing-mode:lr-tb;fill:#000000;fill-opacity:1;fill-rule:nonzero;stroke:none" id="text214"><tspan x="0 5.8470497" y="0" id="tspan212">∂b</tspan></text>
<text transform="matrix(1,0,0,-1,300.413,507.614)" style="font-variant:normal;font-weight:normal;font-size:14.34619999px;font-family:CMR12;-inkscape-font-specification:CMR12;writing-mode:lr-tb;fill:#000000;fill-opacity:1;fill-rule:nonzero;stroke:none" id="text218"><tspan x="0 14.91431" y="0" id="tspan216">=1</tspan></text>
<g id="g220" transform="translate(283.883,507.614)"/></g></g><g id="g222" transform="translate(-24.221,-37.776)"/></g></g></g></g><g id="g224"><g id="g226"><path d="m 20.18852,105.22896 41.91445,41.91443" style="fill:none;stroke:#ff0000;stroke-width:1.19553006;stroke-linecap:butt;stroke-linejoin:miter;stroke-miterlimit:10;stroke-dasharray:none;stroke-opacity:1" id="path228"/><g id="g230"><g id="g232" transform="matrix(0.7071,0.7071,-0.7071,0.7071,59.83177,144.87221)"><g id="g234"><path d="M 6.66628,0 1.93044,1.79556 3.5108,0 1.93044,-1.79556 Z" style="fill:#000000;fill-opacity:1;fill-rule:nonzero;stroke:#000000;stroke-width:1.19553006;stroke-linecap:butt;stroke-linejoin:miter;stroke-miterlimit:10;stroke-dasharray:none;stroke-opacity:1" id="path236"/></g></g></g><g id="g238"><g id="g240"><path d="m 68.7009,128.00935 c 0,14.21155 -11.52043,25.73197 -25.73197,25.73197 -14.21154,0 -25.73196,-11.52042 -25.73196,-25.73197 0,-14.21153 11.52042,-25.73195 25.73196,-25.73195 14.21154,0 25.73197,11.52042 25.73197,25.73195 z" style="fill:#ffffff;fill-opacity:1;fill-rule:nonzero;stroke:none" id="path242"/></g><g id="g244" transform="translate(23.573,124.198)"><g id="g246"><g id="g248" transform="translate(-283.235,-594.036)"><text transform="matrix(1,0,0,-1,284.43,599.684)" style="font-variant:normal;font-weight:normal;font-size:9.96259975px;font-family:CMMI10;-inkscape-font-specification:CMMI10;writing-mode:lr-tb;fill:#000000;fill-opacity:1;fill-rule:nonzero;stroke:none" id="text252"><tspan x="0 5.8470497" y="0" id="tspan250">∂e</tspan></text>
<g id="g254" transform="translate(284.43,597.622)"><path d="M 0,0 H 10.482" style="fill:none;stroke:#000000;stroke-width:0.398;stroke-linecap:butt;stroke-linejoin:miter;stroke-miterlimit:10;stroke-dasharray:none;stroke-opacity:1" id="path256"/></g><text transform="matrix(1,0,0,-1,284.594,589.089)" style="font-variant:normal;font-weight:normal;font-size:9.96259975px;font-family:CMMI10;-inkscape-font-specification:CMMI10;writing-mode:lr-tb;fill:#000000;fill-opacity:1;fill-rule:nonzero;stroke:none" id="text260"><tspan x="0 5.8470497" y="0" id="tspan258">∂c</tspan></text>
<text transform="matrix(1,0,0,-1,300.092,594.036)" style="font-variant:normal;font-weight:normal;font-size:14.34619999px;font-family:CMR12;-inkscape-font-specification:CMR12;writing-mode:lr-tb;fill:#000000;fill-opacity:1;fill-rule:nonzero;stroke:none" id="text264"><tspan x="0 14.91431" y="0" id="tspan262">=2</tspan></text>
<g id="g266" transform="translate(283.235,594.036)"/></g></g><g id="g268" transform="translate(-23.573,-124.198)"/></g></g></g></g><g id="g270"><g id="g272"><path d="m 149.5432,105.57808 -41.56533,41.56531" style="fill:none;stroke:#ff0000;stroke-width:1.19553006;stroke-linecap:butt;stroke-linejoin:miter;stroke-miterlimit:10;stroke-dasharray:none;stroke-opacity:1" id="path274"/><g id="g276"><g id="g278" transform="matrix(-0.7071,0.7071,-0.7071,-0.7071,110.24907,144.87221)"><g id="g280"><path d="M 6.66628,0 1.93044,1.79556 3.5108,0 1.93044,-1.79556 Z" style="fill:#000000;fill-opacity:1;fill-rule:nonzero;stroke:#000000;stroke-width:1.19553006;stroke-linecap:butt;stroke-linejoin:miter;stroke-miterlimit:10;stroke-dasharray:none;stroke-opacity:1" id="path282"/></g></g></g><g id="g284"><g id="g286"><path d="m 152.86414,128.18393 c 0,14.31915 -11.60764,25.92679 -25.92679,25.92679 -14.31915,0 -25.92679,-11.60764 -25.92679,-25.92679 0,-14.31915 11.60764,-25.92679 25.92679,-25.92679 14.31915,0 25.92679,11.60764 25.92679,25.92679 z" style="fill:#ffffff;fill-opacity:1;fill-rule:nonzero;stroke:none" id="path288"/></g><g id="g290" transform="translate(107.267,124.372)"><g id="g292"><g id="g294" transform="translate(-366.929,-594.21)"><text transform="matrix(1,0,0,-1,368.397,599.859)" style="font-variant:normal;font-weight:normal;font-size:9.96259975px;font-family:CMMI10;-inkscape-font-specification:CMMI10;writing-mode:lr-tb;fill:#000000;fill-opacity:1;fill-rule:nonzero;stroke:none" id="text298"><tspan x="0 5.8470497" y="0" id="tspan296">∂e</tspan></text>
<g id="g300" transform="translate(368.124,597.797)"><path d="M 0,0 H 11.028" style="fill:none;stroke:#000000;stroke-width:0.398;stroke-linecap:butt;stroke-linejoin:miter;stroke-miterlimit:10;stroke-dasharray:none;stroke-opacity:1" id="path302"/></g><text transform="matrix(1,0,0,-1,368.124,589.263)" style="font-variant:normal;font-weight:normal;font-size:9.96259975px;font-family:CMMI10;-inkscape-font-specification:CMMI10;writing-mode:lr-tb;fill:#000000;fill-opacity:1;fill-rule:nonzero;stroke:none" id="text306"><tspan x="0 5.8470497" y="0" id="tspan304">∂d</tspan></text>
<text transform="matrix(1,0,0,-1,384.333,594.21)" style="font-variant:normal;font-weight:normal;font-size:14.34619999px;font-family:CMR12;-inkscape-font-specification:CMR12;writing-mode:lr-tb;fill:#000000;fill-opacity:1;fill-rule:nonzero;stroke:none" id="text310"><tspan x="0 14.91431" y="0" id="tspan308">=3</tspan></text>
<g id="g312" transform="translate(366.929,594.21)"/></g></g><g id="g314" transform="translate(-107.267,-124.372)"/></g></g></g></g><g id="g316"><g id="g318"><path d="m 103.36205,18.32161 42.53477,42.53477" style="fill:none;stroke:#ff0000;stroke-width:1.19553006;stroke-linecap:butt;stroke-linejoin:miter;stroke-miterlimit:10;stroke-dasharray:none;stroke-opacity:1" id="path320"/><g id="g322"><g id="g324" transform="matrix(0.7071,0.7071,-0.7071,0.7071,143.62563,58.58519)"><g id="g326"><path d="M 6.66628,0 1.93044,1.79556 3.5108,0 1.93044,-1.79556 Z" style="fill:#000000;fill-opacity:1;fill-rule:nonzero;stroke:#000000;stroke-width:1.19553006;stroke-linecap:butt;stroke-linejoin:miter;stroke-miterlimit:10;stroke-dasharray:none;stroke-opacity:1" id="path328"/></g></g></g><g id="g330"><g id="g332"><path d="m 152.37941,41.41219 c 0,14.31915 -11.60764,25.92678 -25.92679,25.92678 -14.31915,0 -25.92679,-11.60763 -25.92679,-25.92678 0,-14.31916 11.60764,-25.92679 25.92679,-25.92679 14.31915,0 25.92679,11.60763 25.92679,25.92679 z" style="fill:#ffffff;fill-opacity:1;fill-rule:nonzero;stroke:none" id="path334"/></g><g id="g336" transform="translate(106.782,37.602)"><g id="g338"><g id="g340" transform="translate(-366.444,-507.44)"><text transform="matrix(1,0,0,-1,367.639,513.088)" style="font-variant:normal;font-weight:normal;font-size:9.96259975px;font-family:CMMI10;-inkscape-font-specification:CMMI10;writing-mode:lr-tb;fill:#000000;fill-opacity:1;fill-rule:nonzero;stroke:none" id="text344"><tspan x="0 5.8470497" y="0" id="tspan342">∂d</tspan></text>
<g id="g346" transform="translate(367.639,511.026)"><path d="M 0,0 H 11.028" style="fill:none;stroke:#000000;stroke-width:0.398;stroke-linecap:butt;stroke-linejoin:miter;stroke-miterlimit:10;stroke-dasharray:none;stroke-opacity:1" id="path348"/></g><text transform="matrix(1,0,0,-1,368.094,502.493)" style="font-variant:normal;font-weight:normal;font-size:9.96259975px;font-family:CMMI10;-inkscape-font-specification:CMMI10;writing-mode:lr-tb;fill:#000000;fill-opacity:1;fill-rule:nonzero;stroke:none" id="text352"><tspan x="0 5.8470497" y="0" id="tspan350">∂b</tspan></text>
<text transform="matrix(1,0,0,-1,383.848,507.44)" style="font-variant:normal;font-weight:normal;font-size:14.34619999px;font-family:CMR12;-inkscape-font-specification:CMR12;writing-mode:lr-tb;fill:#000000;fill-opacity:1;fill-rule:nonzero;stroke:none" id="text356"><tspan x="0 14.91431" y="0" id="tspan354">=1</tspan></text>
<g id="g358" transform="translate(366.444,507.44)"/></g></g><g id="g360" transform="translate(-106.782,-37.602)"/></g></g></g></g></g></g></g><g id="g362" transform="translate(-259.662,-469.838)"><text transform="matrix(1,0,0,-1,303.133,89.365)" style="font-variant:normal;font-weight:normal;font-size:9.96259975px;font-family:CMR10;-inkscape-font-specification:CMR10;writing-mode:lr-tb;fill:#000000;fill-opacity:1;fill-rule:nonzero;stroke:none" id="text366"><tspan x="0" y="0" id="tspan364">1</tspan></text>
</g></g></g></svg>