<svg xmlns="http://www.w3.org/2000/svg" xmlns:xlink="http://www.w3.org/1999/xlink" xmlns:inkscape="http://www.inkscape.org/namespaces/inkscape" version="1.1" width="387.72999" height="296.5" viewBox="0 0 387.72999 296.5">
<path transform="matrix(1,0,0,-1,132.932,224.521)" stroke-width=".79701" stroke-linecap="butt" stroke-miterlimit="10" stroke-linejoin="miter" fill="none" stroke="#000000" d="M-59.06815 0C-59.06815 14.34425-70.69615 25.97227-85.04042 25.97227-99.38469 25.97227-111.0127 14.34425-111.0127 0-111.0127-14.34425-99.38469-25.97227-85.04042-25.97227-70.69615-25.97227-59.06815-14.34425-59.06815 0ZM-85.04042 0"/>
<text xml:space="preserve" transform="matrix(1 0 -0 1 -127.189998 695.51)" font-size="9.9626" font-family="CMMI10" font-style="italic"><tspan y="-472.828" x="156.882 162.73006">&#x2202;e</tspan></text>
<path transform="matrix(1,0,0,-1,29.379006,224.74402)" stroke-width=".398" stroke-linecap="butt" stroke-miterlimit="10" stroke-linejoin="miter" fill="none" stroke="#000000" d="M0 0H11.109"/>
<text xml:space="preserve" transform="matrix(1 0 -0 1 -127.189998 695.51)" font-size="9.9626" font-family="CMMI10" font-style="italic"><tspan y="-462.232" x="156.569 162.41706">&#x2202;a</tspan></text>
<text xml:space="preserve" transform="matrix(1 0 -0 1 -127.189998 695.51)" font-size="14.3462" font-family="CMR12"><tspan y="-467.179" x="172.858 187.77806">=2</tspan></text>
<path transform="matrix(1,0,0,-1,132.932,224.521)" stroke-width=".79701" stroke-linecap="butt" stroke-miterlimit="10" stroke-linejoin="miter" fill="none" stroke="#000000" d="M25.73195 85.04042C25.73195 99.25197 14.21153 110.77238 0 110.77238-14.21153 110.77238-25.73195 99.25197-25.73195 85.04042-25.73195 70.82889-14.21153 59.30846 0 59.30846 14.21153 59.30846 25.73195 70.82889 25.73195 85.04042ZM0 85.04042"/>
<text xml:space="preserve" transform="matrix(1 0 -0 1 -127.18999 695.51)" font-size="9.9626" font-family="CMMI10" font-style="italic"><tspan y="-557.867" x="241.922 247.77005">&#x2202;e</tspan></text>
<path transform="matrix(1,0,0,-1,114.73201,139.70502)" stroke-width=".398" stroke-linecap="butt" stroke-miterlimit="10" stroke-linejoin="miter" fill="none" stroke="#000000" d="M0 0H10.482"/>
<text xml:space="preserve" transform="matrix(1 0 -0 1 -127.18999 695.51)" font-size="9.9626" font-family="CMMI10" font-style="italic"><tspan y="-547.271" x="242.085 247.93306">&#x2202;c</tspan></text>
<text xml:space="preserve" transform="matrix(1 0 -0 1 -127.18999 695.51)" font-size="14.3462" font-family="CMR12"><tspan y="-552.219" x="257.584 272.50407">=2</tspan></text>
<path transform="matrix(1,0,0,-1,132.932,224.521)" stroke-width=".79701" stroke-linecap="butt" stroke-miterlimit="10" stroke-linejoin="miter" fill="none" stroke="#000000" d="M110.77238 170.08086C110.77238 184.29239 99.25197 195.81282 85.04042 195.81282 70.82889 195.81282 59.30846 184.29239 59.30846 170.08086 59.30846 155.86931 70.82889 144.34889 85.04042 144.34889 99.25197 144.34889 110.77238 155.86931 110.77238 170.08086ZM85.04042 170.08086"/>
<text xml:space="preserve" transform="matrix(1 0 -0 1 -127.18999 695.51)" font-size="9.9626" font-family="CMMI10" font-style="italic"><tspan y="-642.906" x="326.961 332.80903">&#x2202;e</tspan></text>
<path transform="matrix(1,0,0,-1,199.77101,54.666017)" stroke-width=".398" stroke-linecap="butt" stroke-miterlimit="10" stroke-linejoin="miter" fill="none" stroke="#000000" d="M0 0H10.482"/>
<text xml:space="preserve" transform="matrix(1 0 -0 1 -127.18999 695.51)" font-size="9.9626" font-family="CMMI10" font-style="italic"><tspan y="-632.311" x="326.961 332.80903">&#x2202;e</tspan></text>
<text xml:space="preserve" transform="matrix(1 0 -0 1 -127.18999 695.51)" font-size="14.3462" font-family="CMR12"><tspan y="-637.258" x="342.623 357.54304">=1</tspan></text>
<path transform="matrix(1,0,0,-1,132.932,224.521)" stroke-width=".79701" stroke-linecap="butt" stroke-miterlimit="10" stroke-linejoin="miter" fill="none" stroke="#000000" d="M196.00765 85.04042C196.00765 99.35957 184.40001 110.96721 170.08086 110.96721 155.7617 110.96721 144.15406 99.35957 144.15406 85.04042 144.15406 70.72127 155.7617 59.11363 170.08086 59.11363 184.40001 59.11363 196.00765 70.72127 196.00765 85.04042ZM170.08086 85.04042"/>
<text xml:space="preserve" transform="matrix(1 0 -0 1 -127.19 695.51)" font-size="9.9626" font-family="CMMI10" font-style="italic"><tspan y="-557.867" x="412 417.84803">&#x2202;e</tspan></text>
<path transform="matrix(1,0,0,-1,284.537,139.70502)" stroke-width=".398" stroke-linecap="butt" stroke-miterlimit="10" stroke-linejoin="miter" fill="none" stroke="#000000" d="M0 0H11.028"/>
<text xml:space="preserve" transform="matrix(1 0 -0 1 -127.19 695.51)" font-size="9.9626" font-family="CMMI10" font-style="italic"><tspan y="-547.271" x="411.727 417.575">&#x2202;d</tspan></text>
<text xml:space="preserve" transform="matrix(1 0 -0 1 -127.19 695.51)" font-size="14.3462" font-family="CMR12"><tspan y="-552.219" x="427.93598 442.85603">=3</tspan></text>
<path transform="matrix(1,0,0,-1,132.932,224.521)" stroke-width=".79701" stroke-linecap="butt" stroke-miterlimit="10" stroke-linejoin="miter" fill="none" stroke="#000000" d="M110.77238 0C110.77238 14.21153 99.25197 25.73195 85.04042 25.73195 70.82889 25.73195 59.30846 14.21153 59.30846 0 59.30846-14.21153 70.82889-25.73195 85.04042-25.73195 99.25197-25.73195 110.77238-14.21153 110.77238 0ZM85.04042 0"/>
<text xml:space="preserve" transform="matrix(1 0 -0 1 -127.18999 695.51)" font-size="9.9626" font-family="CMMI10" font-style="italic"><tspan y="-472.828" x="326.961 332.80903">&#x2202;e</tspan></text>
<path transform="matrix(1,0,0,-1,199.77101,224.74402)" stroke-width=".398" stroke-linecap="butt" stroke-miterlimit="10" stroke-linejoin="miter" fill="none" stroke="#000000" d="M0 0H10.482"/>
<text xml:space="preserve" transform="matrix(1 0 -0 1 -127.18999 695.51)" font-size="9.9626" font-family="CMMI10" font-style="italic"><tspan y="-462.232" x="327.143 332.99104">&#x2202;b</tspan></text>
<text xml:space="preserve" transform="matrix(1 0 -0 1 -127.18999 695.51)" font-size="14.3462" font-family="CMR12"><tspan y="-467.179" x="342.62303 357.54307">=5</tspan></text>
<path transform="matrix(1,0,0,-1,132.932,224.521)" stroke-width="1.19553" stroke-linecap="butt" stroke-miterlimit="10" stroke-linejoin="miter" fill="none" stroke="#ff0000" d="M-66.39345 18.64697-22.12341 62.91699"/>
<path transform="matrix(.7071,-.7071,-.7071,-.7071,108.53741,163.87519)" d="M6.66628 0 1.93044 1.79556 3.5108 0 1.93044-1.79556Z"/>
<path transform="matrix(.7071,-.7071,-.7071,-.7071,108.53741,163.87519)" stroke-width="1.19553" stroke-linecap="butt" stroke-miterlimit="10" stroke-linejoin="miter" fill="none" stroke="#000000" d="M6.66628 0 1.93044 1.79556 3.5108 0 1.93044-1.79556Z"/>
<path transform="matrix(1,0,0,-1,132.932,224.521)" d="M-16.46298 42.60516C-16.46298 56.94943-28.09099 68.57744-42.43526 68.57744-56.77953 68.57744-68.40753 56.94943-68.40753 42.60516-68.40753 28.2609-56.77953 16.63289-42.43526 16.63289-28.09099 16.63289-16.46298 28.2609-16.46298 42.60516ZM-42.43526 42.60516" fill="#ffffff"/>
<text xml:space="preserve" transform="matrix(1 0 -0 1 -127.18999 695.51)" font-size="9.9626" font-family="CMMI10" font-style="italic"><tspan y="-515.432" x="199.651 205.49906">&#x2202;c</tspan></text>
<path transform="matrix(1,0,0,-1,71.98302,182.14002)" stroke-width=".398" stroke-linecap="butt" stroke-miterlimit="10" stroke-linejoin="miter" fill="none" stroke="#000000" d="M0 0H11.109"/>
<text xml:space="preserve" transform="matrix(1 0 -0 1 -127.18999 695.51)" font-size="9.9626" font-family="CMMI10" font-style="italic"><tspan y="-504.837" x="199.173 205.02106">&#x2202;a</tspan></text>
<text xml:space="preserve" transform="matrix(1 0 -0 1 -127.18999 695.51)" font-size="14.3462" font-family="CMR12"><tspan y="-509.784" x="215.46302 230.38307">=1</tspan></text>
<path transform="matrix(1,0,0,-1,132.932,224.521)" stroke-width="1.19553" stroke-linecap="butt" stroke-miterlimit="10" stroke-linejoin="miter" fill="none" stroke="#ff0000" d="M66.56337 18.47704 22.12341 62.91699"/>
<path transform="matrix(-.7071,-.7071,-.7071,.7071,157.3266,163.87519)" d="M6.66628 0 1.93044 1.79556 3.5108 0 1.93044-1.79556Z"/>
<path transform="matrix(-.7071,-.7071,-.7071,.7071,157.3266,163.87519)" stroke-width="1.19553" stroke-linecap="butt" stroke-miterlimit="10" stroke-linejoin="miter" fill="none" stroke="#000000" d="M6.66628 0 1.93044 1.79556 3.5108 0 1.93044-1.79556Z"/>
<path transform="matrix(1,0,0,-1,132.932,224.521)" d="M68.06683 42.5202C68.06683 56.62938 56.6294 68.06682 42.52022 68.06682 28.41103 68.06682 16.97359 56.62938 16.97359 42.5202 16.97359 28.41101 28.41103 16.97357 42.52022 16.97357 56.6294 16.97357 68.06683 28.41101 68.06683 42.5202ZM42.52022 42.5202" fill="#ffffff"/>
<text xml:space="preserve" transform="matrix(1 0 -0 1 -127.19 695.51)" font-size="9.9626" font-family="CMMI10" font-style="italic"><tspan y="-515.347" x="284.605 290.45304">&#x2202;c</tspan></text>
<path transform="matrix(1,0,0,-1,157.41501,182.22504)" stroke-width=".398" stroke-linecap="butt" stroke-miterlimit="10" stroke-linejoin="miter" fill="none" stroke="#000000" d="M0 0H10.154"/>
<text xml:space="preserve" transform="matrix(1 0 -0 1 -127.19 695.51)" font-size="9.9626" font-family="CMMI10" font-style="italic"><tspan y="-504.752" x="284.623 290.471">&#x2202;b</tspan></text>
<text xml:space="preserve" transform="matrix(1 0 -0 1 -127.19 695.51)" font-size="14.3462" font-family="CMR12"><tspan y="-509.699" x="299.93998 314.86003">=1</tspan></text>
<path transform="matrix(1,0,0,-1,132.932,224.521)" stroke-width="1.19553" stroke-linecap="butt" stroke-miterlimit="10" stroke-linejoin="miter" fill="none" stroke="#ff0000" d="M18.47704 103.51747 62.91699 147.95743"/>
<path transform="matrix(.7071,-.7071,-.7071,-.7071,193.57782,78.83476)" d="M6.66628 0 1.93044 1.79556 3.5108 0 1.93044-1.79556Z"/>
<path transform="matrix(.7071,-.7071,-.7071,-.7071,193.57782,78.83476)" stroke-width="1.19553" stroke-linecap="butt" stroke-miterlimit="10" stroke-linejoin="miter" fill="none" stroke="#000000" d="M6.66628 0 1.93044 1.79556 3.5108 0 1.93044-1.79556Z"/>
<path transform="matrix(1,0,0,-1,132.932,224.521)" d="M68.25217 127.56062C68.25217 141.77217 56.73174 153.29259 42.5202 153.29259 28.30865 153.29259 16.78824 141.77217 16.78824 127.56062 16.78824 113.34909 28.30865 101.82866 42.5202 101.82866 56.73174 101.82866 68.25217 113.34909 68.25217 127.56062ZM42.5202 127.56062" fill="#ffffff"/>
<text xml:space="preserve" transform="matrix(1 0 -0 1 -127.19 695.50997)" font-size="9.9626" font-family="CMMI10" font-style="italic"><tspan y="-600.387" x="284.441 290.28904">&#x2202;e</tspan></text>
<path transform="matrix(1,0,0,-1,157.251,97.18494)" stroke-width=".398" stroke-linecap="butt" stroke-miterlimit="10" stroke-linejoin="miter" fill="none" stroke="#000000" d="M0 0H10.482"/>
<text xml:space="preserve" transform="matrix(1 0 -0 1 -127.19 695.50997)" font-size="9.9626" font-family="CMMI10" font-style="italic"><tspan y="-589.791" x="284.605 290.45304">&#x2202;c</tspan></text>
<text xml:space="preserve" transform="matrix(1 0 -0 1 -127.19 695.50997)" font-size="14.3462" font-family="CMR12"><tspan y="-594.73806" x="300.103 315.02305">=2</tspan></text>
<path transform="matrix(1,0,0,-1,132.932,224.521)" stroke-width="1.19553" stroke-linecap="butt" stroke-miterlimit="10" stroke-linejoin="miter" fill="none" stroke="#ff0000" d="M151.46605 103.65523 107.16385 147.95743"/>
<path transform="matrix(-.7071,-.7071,-.7071,.7071,242.36705,78.83476)" d="M6.66628 0 1.93044 1.79556 3.5108 0 1.93044-1.79556Z"/>
<path transform="matrix(-.7071,-.7071,-.7071,.7071,242.36705,78.83476)" stroke-width="1.19553" stroke-linecap="butt" stroke-miterlimit="10" stroke-linejoin="miter" fill="none" stroke="#000000" d="M6.66628 0 1.93044 1.79556 3.5108 0 1.93044-1.79556Z"/>
<path transform="matrix(1,0,0,-1,132.932,224.521)" d="M153.41855 127.62952C153.41855 141.94867 141.81092 153.5563 127.49176 153.5563 113.1726 153.5563 101.56497 141.94867 101.56497 127.62952 101.56497 113.31035 113.1726 101.70271 127.49176 101.70271 141.81092 101.70271 153.41855 113.31035 153.41855 127.62952ZM127.49176 127.62952" fill="#ffffff"/>
<text xml:space="preserve" transform="matrix(1 0 -0 1 -127.18999 695.51)" font-size="9.9626" font-family="CMMI10" font-style="italic"><tspan y="-600.456" x="369.412 375.26">&#x2202;e</tspan></text>
<path transform="matrix(1,0,0,-1,241.94902,97.11603)" stroke-width=".398" stroke-linecap="butt" stroke-miterlimit="10" stroke-linejoin="miter" fill="none" stroke="#000000" d="M0 0H11.028"/>
<text xml:space="preserve" transform="matrix(1 0 -0 1 -127.18999 695.51)" font-size="9.9626" font-family="CMMI10" font-style="italic"><tspan y="-589.86" x="369.139 374.98704">&#x2202;d</tspan></text>
<text xml:space="preserve" transform="matrix(1 0 -0 1 -127.18999 695.51)" font-size="14.3462" font-family="CMR12"><tspan y="-594.807" x="385.34703 400.26707">=3</tspan></text>
<path transform="matrix(1,0,0,-1,132.932,224.521)" stroke-width="1.19553" stroke-linecap="butt" stroke-miterlimit="10" stroke-linejoin="miter" fill="none" stroke="#ff0000" d="M103.51747 18.47704 147.81967 62.77924"/>
<path transform="matrix(.7071,-.7071,-.7071,-.7071,278.48048,164.01296)" d="M6.66628 0 1.93044 1.79556 3.5108 0 1.93044-1.79556Z"/>
<path transform="matrix(.7071,-.7071,-.7071,-.7071,278.48048,164.01296)" stroke-width="1.19553" stroke-linecap="butt" stroke-miterlimit="10" stroke-linejoin="miter" fill="none" stroke="#000000" d="M6.66628 0 1.93044 1.79556 3.5108 0 1.93044-1.79556Z"/>
<path transform="matrix(1,0,0,-1,132.932,224.521)" d="M153.41854 42.45132C153.41854 56.77048 141.8109 68.37811 127.49174 68.37811 113.17259 68.37811 101.56496 56.77048 101.56496 42.45132 101.56496 28.13217 113.17259 16.52452 127.49174 16.52452 141.8109 16.52452 153.41854 28.13217 153.41854 42.45132ZM127.49174 42.45132" fill="#ffffff"/>
<text xml:space="preserve" transform="matrix(1 0 -0 1 -127.18999 695.51)" font-size="9.9626" font-family="CMMI10" font-style="italic"><tspan y="-515.279" x="369.139 374.98704">&#x2202;d</tspan></text>
<path transform="matrix(1,0,0,-1,241.94902,182.29303)" stroke-width=".398" stroke-linecap="butt" stroke-miterlimit="10" stroke-linejoin="miter" fill="none" stroke="#000000" d="M0 0H11.028"/>
<text xml:space="preserve" transform="matrix(1 0 -0 1 -127.18999 695.51)" font-size="9.9626" font-family="CMMI10" font-style="italic"><tspan y="-504.683" x="369.593 375.441">&#x2202;b</tspan></text>
<text xml:space="preserve" transform="matrix(1 0 -0 1 -127.18999 695.51)" font-size="14.3462" font-family="CMR12"><tspan y="-509.63" x="385.347 400.26704">=1</tspan></text>
<text xml:space="preserve" transform="matrix(1 0 -0 1 -127.19 695.51)" font-size="9.9626" font-family="CMR10"><tspan y="-89.365" x="303.133">1</tspan></text>
</svg>
