<svg version="1.1" id="svg2" xml:space="preserve" viewBox="169.11917098445593 116.16 496.7875647668394 479.42400000000004" xmlns="http://www.w3.org/2000/svg" style="max-height: 500px" width="496.7875647668394" height="479.42400000000004"><metadata id="metadata8">image/svg+xml</metadata><defs id="defs6"/><g id="g10" transform="matrix(1.3333333,0,0,-1.3333333,0,1056)"><g id="g12" transform="translate(259.662,472.242)"><g id="g14"><g id="g16"><g id="g18"><g id="g20"><g id="g22"><path d="m -59.52824,0 c 0,14.09015 -11.42203,25.51216 -25.51218,25.51216 -14.09015,0 -25.51218,-11.42201 -25.51218,-25.51216 0,-14.09015 11.42203,-25.51216 25.51218,-25.51216 14.09015,0 25.51218,11.42201 25.51218,25.51216 z" style="fill:none;stroke:#000000;stroke-width:0.79701;stroke-linecap:butt;stroke-linejoin:miter;stroke-miterlimit:10;stroke-dasharray:none;stroke-opacity:1" id="path24"/></g><g id="g26" transform="translate(-87.53,-2.144)"><g id="g28"><g id="g30" transform="translate(-172.132,-470.098)"><text transform="matrix(1,0,0,-1,172.132,470.098)" style="font-variant:normal;font-weight:normal;font-size:9.96259975px;font-family:CMR10;-inkscape-font-specification:CMR10;writing-mode:lr-tb;fill:#000000;fill-opacity:1;fill-rule:nonzero;stroke:none" id="text34"><tspan x="0" y="0" id="tspan32">a</tspan></text>
<g id="g36" transform="translate(172.132,470.098)"/></g></g><g id="g38" transform="translate(87.53,2.144)"/></g></g><g id="g40"><g id="g42"><path d="m 26.10094,85.04042 c 0,14.41534 -11.68561,26.10095 -26.10094,26.10095 -14.41533,0 -26.10094,-11.68561 -26.10094,-26.10095 0,-14.41533 11.68561,-26.10094 26.10094,-26.10094 14.41533,0 26.10094,11.68561 26.10094,26.10094 z" style="fill:none;stroke:#000000;stroke-width:0.79701;stroke-linecap:butt;stroke-linejoin:miter;stroke-miterlimit:10;stroke-dasharray:none;stroke-opacity:1" id="path44"/></g><g id="g46" transform="translate(-21.862,81.996)"><g id="g48"><g id="g50" transform="translate(-237.8,-554.238)"><text transform="matrix(1,0,0,-1,237.8,554.238)" style="font-variant:normal;font-weight:normal;font-size:9.96259975px;font-family:CMR10;-inkscape-font-specification:CMR10;writing-mode:lr-tb;fill:#000000;fill-opacity:1;fill-rule:nonzero;stroke:none" id="text54"><tspan x="0 7.744925 18.821344 27.12019 38.186646" y="0" id="tspan52">c=a+b</tspan></text>
<g id="g56" transform="translate(237.8,554.238)"/></g></g><g id="g58" transform="translate(21.862,-81.996)"/></g></g><g id="g60"><g id="g62"><path d="m 109.51926,170.08086 c 0,13.51945 -10.95938,24.47884 -24.47884,24.47884 -13.51945,0 -24.47884,-10.95939 -24.47884,-24.47884 0,-13.51946 10.95939,-24.47884 24.47884,-24.47884 13.51946,0 24.47884,10.95938 24.47884,24.47884 z" style="fill:none;stroke:#000000;stroke-width:0.79701;stroke-linecap:butt;stroke-linejoin:miter;stroke-miterlimit:10;stroke-dasharray:none;stroke-opacity:1" id="path64"/></g><g id="g66" transform="translate(64.837,166.343)"><g id="g68"><g id="g70" transform="translate(-324.499,-638.585)"><text transform="matrix(1,0,0,-1,324.499,638.585)" style="font-variant:normal;font-weight:normal;font-size:9.96259975px;font-family:CMR10;-inkscape-font-specification:CMR10;writing-mode:lr-tb;fill:#000000;fill-opacity:1;fill-rule:nonzero;stroke:none" id="text74"><tspan x="0 7.744925 18.821344 26.566269 34.865116" y="0" id="tspan72">e=c*d</tspan></text>
<g id="g76" transform="translate(324.499,638.585)"/></g></g><g id="g78" transform="translate(-64.837,-166.343)"/></g></g><g id="g80"><g id="g82"><path d="m 196.75534,85.04042 c 0,14.7321 -11.94238,26.67448 -26.67448,26.67448 -14.73211,0 -26.67449,-11.94238 -26.67449,-26.67448 0,-14.7321 11.94238,-26.67448 26.67449,-26.67448 14.7321,0 26.67448,11.94238 26.67448,26.67448 z" style="fill:none;stroke:#000000;stroke-width:0.79701;stroke-linecap:butt;stroke-linejoin:miter;stroke-miterlimit:10;stroke-dasharray:none;stroke-opacity:1" id="path84"/></g><g id="g86" transform="translate(147.663,81.996)"><g id="g88"><g id="g90" transform="translate(-407.325,-554.238)"><text transform="matrix(1,0,0,-1,407.325,554.238)" style="font-variant:normal;font-weight:normal;font-size:9.96259975px;font-family:CMR10;-inkscape-font-specification:CMR10;writing-mode:lr-tb;fill:#000000;fill-opacity:1;fill-rule:nonzero;stroke:none" id="text94"><tspan x="0 8.852766 19.929186 28.781952 39.848408" y="0" id="tspan92">d=b+1</tspan></text>
<g id="g96" transform="translate(407.325,554.238)"/></g></g><g id="g98" transform="translate(-147.663,-81.996)"/></g></g><g id="g100"><g id="g102"><path d="m 110.5526,0 c 0,14.09015 -11.42203,25.51216 -25.51218,25.51216 C 70.95027,25.51216 59.52824,14.09015 59.52824,0 c 0,-14.09015 11.42203,-25.51216 25.51218,-25.51216 14.09015,0 25.51218,11.42201 25.51218,25.51216 z" style="fill:none;stroke:#000000;stroke-width:0.79701;stroke-linecap:butt;stroke-linejoin:miter;stroke-miterlimit:10;stroke-dasharray:none;stroke-opacity:1" id="path104"/></g><g id="g106" transform="translate(82.272,-3.459)"><g id="g108"><g id="g110" transform="translate(-341.934,-468.783)"><text transform="matrix(1,0,0,-1,341.934,468.783)" style="font-variant:normal;font-weight:normal;font-size:9.96259975px;font-family:CMR10;-inkscape-font-specification:CMR10;writing-mode:lr-tb;fill:#000000;fill-opacity:1;fill-rule:nonzero;stroke:none" id="text114"><tspan x="0" y="0" id="tspan112">b</tspan></text>
<g id="g116" transform="translate(341.934,468.783)"/></g></g><g id="g118" transform="translate(-82.272,3.459)"/></g></g></g><g id="g120"><g id="g122"><g id="g124"><path d="m -66.7188,18.32161 44.33448,44.33447" style="fill:none;stroke:#ff0000;stroke-width:1.19553006;stroke-linecap:butt;stroke-linejoin:miter;stroke-miterlimit:10;stroke-dasharray:none;stroke-opacity:1" id="path126"/><g id="g128"><g id="g130" transform="matrix(0.7071,0.7071,-0.7071,0.7071,-24.65552,60.3849)"><g id="g132"><path d="M 6.66628,0 1.93044,1.79556 3.5108,0 1.93044,-1.79556 Z" style="fill:#000000;fill-opacity:1;fill-rule:nonzero;stroke:#000000;stroke-width:1.19553006;stroke-linecap:butt;stroke-linejoin:miter;stroke-miterlimit:10;stroke-dasharray:none;stroke-opacity:1" id="path134"/></g></g></g></g></g><g id="g136"><g id="g138"><path d="M 66.7188,18.32161 22.38432,62.65608" style="fill:none;stroke:#ff0000;stroke-width:1.19553006;stroke-linecap:butt;stroke-linejoin:miter;stroke-miterlimit:10;stroke-dasharray:none;stroke-opacity:1" id="path140"/><g id="g142"><g id="g144" transform="matrix(-0.7071,0.7071,-0.7071,-0.7071,24.65552,60.3849)"><g id="g146"><path d="M 6.66628,0 1.93044,1.79556 3.5108,0 1.93044,-1.79556 Z" style="fill:#000000;fill-opacity:1;fill-rule:nonzero;stroke:#000000;stroke-width:1.19553006;stroke-linecap:butt;stroke-linejoin:miter;stroke-miterlimit:10;stroke-dasharray:none;stroke-opacity:1" id="path148"/></g></g></g></g></g><g id="g150"><g id="g152"><path d="M 18.73795,103.77838 63.8031,148.84354" style="fill:none;stroke:#ff0000;stroke-width:1.19553006;stroke-linecap:butt;stroke-linejoin:miter;stroke-miterlimit:10;stroke-dasharray:none;stroke-opacity:1" id="path154"/><g id="g156"><g id="g158" transform="matrix(0.7071,0.7071,-0.7071,0.7071,61.53192,146.57234)"><g id="g160"><path d="M 6.66628,0 1.93044,1.79556 3.5108,0 1.93044,-1.79556 Z" style="fill:#000000;fill-opacity:1;fill-rule:nonzero;stroke:#000000;stroke-width:1.19553006;stroke-linecap:butt;stroke-linejoin:miter;stroke-miterlimit:10;stroke-dasharray:none;stroke-opacity:1" id="path162"/></g></g></g></g></g><g id="g164"><g id="g166"><path d="m 150.93735,104.18393 -44.65961,44.65961" style="fill:none;stroke:#ff0000;stroke-width:1.19553006;stroke-linecap:butt;stroke-linejoin:miter;stroke-miterlimit:10;stroke-dasharray:none;stroke-opacity:1" id="path168"/><g id="g170"><g id="g172" transform="matrix(-0.7071,0.7071,-0.7071,-0.7071,108.54893,146.57234)"><g id="g174"><path d="M 6.66628,0 1.93044,1.79556 3.5108,0 1.93044,-1.79556 Z" style="fill:#000000;fill-opacity:1;fill-rule:nonzero;stroke:#000000;stroke-width:1.19553006;stroke-linecap:butt;stroke-linejoin:miter;stroke-miterlimit:10;stroke-dasharray:none;stroke-opacity:1" id="path176"/></g></g></g></g></g><g id="g178"><g id="g180"><path d="m 103.36205,18.32161 43.92892,43.92894" style="fill:none;stroke:#ff0000;stroke-width:1.19553006;stroke-linecap:butt;stroke-linejoin:miter;stroke-miterlimit:10;stroke-dasharray:none;stroke-opacity:1" id="path182"/><g id="g184"><g id="g186" transform="matrix(0.7071,0.7071,-0.7071,0.7071,145.01978,59.97935)"><g id="g188"><path d="M 6.66628,0 1.93044,1.79556 3.5108,0 1.93044,-1.79556 Z" style="fill:#000000;fill-opacity:1;fill-rule:nonzero;stroke:#000000;stroke-width:1.19553006;stroke-linecap:butt;stroke-linejoin:miter;stroke-miterlimit:10;stroke-dasharray:none;stroke-opacity:1" id="path190"/></g></g></g></g></g></g></g></g><g id="g192" transform="translate(-259.662,-472.242)"><text transform="matrix(1,0,0,-1,303.133,89.365)" style="font-variant:normal;font-weight:normal;font-size:9.96259975px;font-family:CMR10;-inkscape-font-specification:CMR10;writing-mode:lr-tb;fill:#000000;fill-opacity:1;fill-rule:nonzero;stroke:none" id="text196"><tspan x="0" y="0" id="tspan194">1</tspan></text>
</g></g></g></svg>