<svg xmlns="http://www.w3.org/2000/svg" xmlns:xlink="http://www.w3.org/1999/xlink" xmlns:inkscape="http://www.inkscape.org/namespaces/inkscape" version="1.1" width="288.75" height="257.13999" viewBox="0 0 288.75 257.13999">
<path transform="matrix(1,0,0,-1,65.37201,181.09799)" stroke-width=".3985" stroke-linecap="butt" stroke-miterlimit="10" stroke-linejoin="miter" fill="none" stroke="#000000" d="M14.17339 85.04042C14.17339 92.86827 7.82784 99.21382 0 99.21382-7.82784 99.21382-14.17339 92.86827-14.17339 85.04042-14.17339 77.21257-7.82784 70.86702 0 70.86702 7.82784 70.86702 14.17339 77.21257 14.17339 85.04042ZM0 85.04042"/>
<text xml:space="preserve" transform="matrix(1 0 -0 1 -85.76199 -128.96302)" font-size="9.9626" font-family="CMMI10" font-style="italic"><tspan y="226.418" x="146.052">x</tspan></text>
<text xml:space="preserve" transform="matrix(1 0 -0 1 -85.76199 -128.96302)" font-size="6.9738" font-family="CMR7"><tspan y="227.912" x="151.746">1</tspan></text>
<path transform="matrix(1,0,0,-1,65.37201,181.09799)" stroke-width=".3985" stroke-linecap="butt" stroke-miterlimit="10" stroke-linejoin="miter" fill="none" stroke="#000000" d="M14.17339 28.3468C14.17339 36.17465 7.82784 42.5202 0 42.5202-7.82784 42.5202-14.17339 36.17465-14.17339 28.3468-14.17339 20.51895-7.82784 14.1734 0 14.1734 7.82784 14.1734 14.17339 20.51895 14.17339 28.3468ZM0 28.3468"/>
<text xml:space="preserve" transform="matrix(1 0 -0 1 -85.76199 -72.269008)" font-size="9.9626" font-family="CMMI10" font-style="italic"><tspan y="226.418" x="146.052">x</tspan></text>
<text xml:space="preserve" transform="matrix(1 0 -0 1 -85.76199 -72.269008)" font-size="6.9738" font-family="CMR7"><tspan y="227.912" x="151.746">2</tspan></text>
<path transform="matrix(1,0,0,-1,65.37201,181.09799)" stroke-width=".3985" stroke-linecap="butt" stroke-miterlimit="10" stroke-linejoin="miter" fill="none" stroke="#000000" d="M14.17339-28.3468C14.17339-20.51895 7.82784-14.1734 0-14.1734-7.82784-14.1734-14.17339-20.51895-14.17339-28.3468-14.17339-36.17465-7.82784-42.5202 0-42.5202 7.82784-42.5202 14.17339-36.17465 14.17339-28.3468ZM0-28.3468"/>
<text xml:space="preserve" transform="matrix(1 0 -0 1 -85.76199 -15.576008)" font-size="9.9626" font-family="CMMI10" font-style="italic"><tspan y="226.418" x="146.052">x</tspan></text>
<text xml:space="preserve" transform="matrix(1 0 -0 1 -85.76199 -15.576008)" font-size="6.9738" font-family="CMR7"><tspan y="227.912" x="151.746">3</tspan></text>
<path transform="matrix(1,0,0,-1,65.37201,181.09799)" stroke-width=".3985" stroke-linecap="butt" stroke-miterlimit="10" stroke-linejoin="miter" fill="none" stroke="#000000" d="M70.867 113.38724C70.867 121.21507 64.52145 127.56062 56.69362 127.56062 48.86577 127.56062 42.52022 121.21507 42.52022 113.38724 42.52022 105.55939 48.86577 99.21384 56.69362 99.21384 64.52145 99.21384 70.867 105.55939 70.867 113.38724ZM56.69362 113.38724"/>
<path transform="matrix(1,0,0,-1,65.37201,181.09799)" stroke-width=".3985" stroke-linecap="butt" stroke-miterlimit="10" stroke-linejoin="miter" fill="none" stroke="#000000" d="M70.867 56.69362C70.867 64.52145 64.52145 70.867 56.69362 70.867 48.86577 70.867 42.52022 64.52145 42.52022 56.69362 42.52022 48.86577 48.86577 42.52022 56.69362 42.52022 64.52145 42.52022 70.867 48.86577 70.867 56.69362ZM56.69362 56.69362"/>
<path transform="matrix(1,0,0,-1,65.37201,181.09799)" stroke-width=".3985" stroke-linecap="butt" stroke-miterlimit="10" stroke-linejoin="miter" fill="none" stroke="#000000" d="M70.867 0C70.867 7.82784 64.52145 14.17339 56.69362 14.17339 48.86577 14.17339 42.52022 7.82784 42.52022 0 42.52022-7.82784 48.86577-14.17339 56.69362-14.17339 64.52145-14.17339 70.867-7.82784 70.867 0ZM56.69362 0"/>
<path transform="matrix(1,0,0,-1,65.37201,181.09799)" stroke-width=".3985" stroke-linecap="butt" stroke-miterlimit="10" stroke-linejoin="miter" fill="none" stroke="#000000" d="M70.867-56.69362C70.867-48.86577 64.52145-42.52022 56.69362-42.52022 48.86577-42.52022 42.52022-48.86577 42.52022-56.69362 42.52022-64.52145 48.86577-70.867 56.69362-70.867 64.52145-70.867 70.867-64.52145 70.867-56.69362ZM56.69362-56.69362"/>
<path transform="matrix(1,0,0,-1,65.37201,181.09799)" stroke-width=".3985" stroke-linecap="butt" stroke-miterlimit="10" stroke-linejoin="miter" fill="none" stroke="#000000" d="M127.56062 28.3468C127.56062 36.17465 121.21507 42.5202 113.38724 42.5202 105.55939 42.5202 99.21384 36.17465 99.21384 28.3468 99.21384 20.51895 105.55939 14.1734 113.38724 14.1734 121.21507 14.1734 127.56062 20.51895 127.56062 28.3468ZM113.38724 28.3468"/>
<text xml:space="preserve" transform="matrix(1 0 -0 1 30.077012 -71.241008)" font-size="9.9626" font-family="LMRoman10"><tspan y="226.418" x="146.052">&#x0177;</tspan></text>
<path transform="matrix(1,0,0,-1,65.37201,181.09799)" stroke-width=".3985" stroke-linecap="butt" stroke-miterlimit="10" stroke-linejoin="miter" fill="none" stroke="#000000" d="M153.0728 14.1734H187.0889V42.52019H153.0728Z"/>
<text xml:space="preserve" transform="matrix(1 0 -0 1 78.98901 -71.17601)" font-size="9.9626" font-family="CMMI10" font-style="italic"><tspan y="226.418" x="146.052">C</tspan></text>
<text xml:space="preserve" transform="matrix(1 0 -0 1 78.98901 -71.17601)" font-size="9.9626" font-family="CMR10"><tspan y="226.418" x="153.88501">(</tspan></text>
<text xml:space="preserve" transform="matrix(1 0 -0 1 78.98901 -71.17601)" font-size="9.9626" font-family="CMMI10" font-style="italic"><tspan y="226.418" x="157.76001">y</tspan></text>
<text xml:space="preserve" transform="matrix(1 0 -0 1 78.98901 -71.17601)" font-size="9.9626" font-family="CMR10"><tspan y="226.418" x="163.00202">)</tspan></text>
<path transform="matrix(1,0,0,-1,65.37201,181.09799)" stroke-width=".3985" stroke-linecap="butt" stroke-miterlimit="10" stroke-linejoin="miter" fill="none" stroke="#000000" d="M12.85435 91.46748 43.42938 106.75523"/>
<path transform="matrix(.89438,-.4472,-.4472,-.89438,108.80138,74.34276)" stroke-width=".31879" stroke-linecap="round" stroke-linejoin="round" fill="none" stroke="#000000" d="M-1.19551 1.59401C-1.09587 .99626 0 .09961 .29886 0 0-.09961-1.09587-.99626-1.19551-1.59401"/>
<path transform="matrix(1,0,0,-1,65.37201,181.09799)" stroke-width=".3985" stroke-linecap="butt" stroke-miterlimit="10" stroke-linejoin="miter" fill="none" stroke="#000000" d="M12.85435 78.61336 43.42938 63.3256"/>
<path transform="matrix(.89438,.4472,.4472,-.89438,108.80138,117.77239)" stroke-width=".31879" stroke-linecap="round" stroke-linejoin="round" fill="none" stroke="#000000" d="M-1.19551 1.59401C-1.09587 .99626 0 .09961 .29886 0 0-.09961-1.09587-.99626-1.19551-1.59401"/>
<path transform="matrix(1,0,0,-1,65.37201,181.09799)" stroke-width=".3985" stroke-linecap="butt" stroke-miterlimit="10" stroke-linejoin="miter" fill="none" stroke="#000000" d="M7.97209 73.08215 48.46732 12.33954"/>
<path transform="matrix(.55467,.83202,.83202,-.55467,113.839328,168.75844)" stroke-width=".31879" stroke-linecap="round" stroke-linejoin="round" fill="none" stroke="#000000" d="M-1.19551 1.59401C-1.09587 .99626 0 .09961 .29886 0 0-.09961-1.09587-.99626-1.19551-1.59401"/>
<path transform="matrix(1,0,0,-1,65.37201,181.09799)" stroke-width=".3985" stroke-linecap="butt" stroke-miterlimit="10" stroke-linejoin="miter" fill="none" stroke="#000000" d="M5.33752 71.69633 51.18588-42.92406"/>
<path transform="matrix(.37137,.92844,.92844,-.37137,116.55789,224.02204)" stroke-width=".31879" stroke-linecap="round" stroke-linejoin="round" fill="none" stroke="#000000" d="M-1.19551 1.59401C-1.09587 .99626 0 .09961 .29886 0 0-.09961-1.09587-.99626-1.19551-1.59401"/>
<path transform="matrix(1,0,0,-1,65.37201,181.09799)" stroke-width=".3985" stroke-linecap="butt" stroke-miterlimit="10" stroke-linejoin="miter" fill="none" stroke="#000000" d="M7.97209 40.30507 48.46732 101.04768"/>
<path transform="matrix(.55467,-.83202,-.83202,-.55467,113.839328,80.05032)" stroke-width=".31879" stroke-linecap="round" stroke-linejoin="round" fill="none" stroke="#000000" d="M-1.19551 1.59401C-1.09587 .99626 0 .09961 .29886 0 0-.09961-1.09587-.99626-1.19551-1.59401"/>
<path transform="matrix(1,0,0,-1,65.37201,181.09799)" stroke-width=".3985" stroke-linecap="butt" stroke-miterlimit="10" stroke-linejoin="miter" fill="none" stroke="#000000" d="M12.85435 34.77386 43.42938 50.06161"/>
<path transform="matrix(.89438,-.4472,-.4472,-.89438,108.80138,131.03638)" stroke-width=".31879" stroke-linecap="round" stroke-linejoin="round" fill="none" stroke="#000000" d="M-1.19551 1.59401C-1.09587 .99626 0 .09961 .29886 0 0-.09961-1.09587-.99626-1.19551-1.59401"/>
<path transform="matrix(1,0,0,-1,65.37201,181.09799)" stroke-width=".3985" stroke-linecap="butt" stroke-miterlimit="10" stroke-linejoin="miter" fill="none" stroke="#000000" d="M12.85435 21.91974 43.42938 6.63199"/>
<path transform="matrix(.89438,.4472,.4472,-.89438,108.80138,174.466)" stroke-width=".31879" stroke-linecap="round" stroke-linejoin="round" fill="none" stroke="#000000" d="M-1.19551 1.59401C-1.09587 .99626 0 .09961 .29886 0 0-.09961-1.09587-.99626-1.19551-1.59401"/>
<path transform="matrix(1,0,0,-1,65.37201,181.09799)" stroke-width=".3985" stroke-linecap="butt" stroke-miterlimit="10" stroke-linejoin="miter" fill="none" stroke="#000000" d="M7.97209 16.38853 48.46732-44.35406"/>
<path transform="matrix(.55467,.83202,.83202,-.55467,113.839328,225.45204)" stroke-width=".31879" stroke-linecap="round" stroke-linejoin="round" fill="none" stroke="#000000" d="M-1.19551 1.59401C-1.09587 .99626 0 .09961 .29886 0 0-.09961-1.09587-.99626-1.19551-1.59401"/>
<path transform="matrix(1,0,0,-1,65.37201,181.09799)" stroke-width=".3985" stroke-linecap="butt" stroke-miterlimit="10" stroke-linejoin="miter" fill="none" stroke="#000000" d="M5.33752-15.00272 51.18588 99.61768"/>
<path transform="matrix(.37137,-.92844,-.92844,-.37137,116.55789,81.48033)" stroke-width=".31879" stroke-linecap="round" stroke-linejoin="round" fill="none" stroke="#000000" d="M-1.19551 1.59401C-1.09587 .99626 0 .09961 .29886 0 0-.09961-1.09587-.99626-1.19551-1.59401"/>
<path transform="matrix(1,0,0,-1,65.37201,181.09799)" stroke-width=".3985" stroke-linecap="butt" stroke-miterlimit="10" stroke-linejoin="miter" fill="none" stroke="#000000" d="M7.97209-16.38853 48.46732 44.35406"/>
<path transform="matrix(.55467,-.83202,-.83202,-.55467,113.839328,136.74394)" stroke-width=".31879" stroke-linecap="round" stroke-linejoin="round" fill="none" stroke="#000000" d="M-1.19551 1.59401C-1.09587 .99626 0 .09961 .29886 0 0-.09961-1.09587-.99626-1.19551-1.59401"/>
<path transform="matrix(1,0,0,-1,65.37201,181.09799)" stroke-width=".3985" stroke-linecap="butt" stroke-miterlimit="10" stroke-linejoin="miter" fill="none" stroke="#000000" d="M12.85435-21.91974 43.42938-6.63199"/>
<path transform="matrix(.89438,-.4472,-.4472,-.89438,108.80138,187.72998)" stroke-width=".31879" stroke-linecap="round" stroke-linejoin="round" fill="none" stroke="#000000" d="M-1.19551 1.59401C-1.09587 .99626 0 .09961 .29886 0 0-.09961-1.09587-.99626-1.19551-1.59401"/>
<path transform="matrix(1,0,0,-1,65.37201,181.09799)" stroke-width=".3985" stroke-linecap="butt" stroke-miterlimit="10" stroke-linejoin="miter" fill="none" stroke="#000000" d="M12.85435-34.77386 43.42938-50.06161"/>
<path transform="matrix(.89438,.4472,.4472,-.89438,108.80138,231.1596)" stroke-width=".31879" stroke-linecap="round" stroke-linejoin="round" fill="none" stroke="#000000" d="M-1.19551 1.59401C-1.09587 .99626 0 .09961 .29886 0 0-.09961-1.09587-.99626-1.19551-1.59401"/>
<path transform="matrix(1,0,0,-1,65.37201,181.09799)" stroke-width=".3985" stroke-linecap="butt" stroke-miterlimit="10" stroke-linejoin="miter" fill="none" stroke="#000000" d="M64.66571 101.42896 105.16093 40.68636"/>
<path transform="matrix(.55467,.83202,.83202,-.55467,170.53293,140.41162)" stroke-width=".31879" stroke-linecap="round" stroke-linejoin="round" fill="none" stroke="#000000" d="M-1.19551 1.59401C-1.09587 .99626 0 .09961 .29886 0 0-.09961-1.09587-.99626-1.19551-1.59401"/>
<path transform="matrix(1,0,0,-1,65.37201,181.09799)" stroke-width=".3985" stroke-linecap="butt" stroke-miterlimit="10" stroke-linejoin="miter" fill="none" stroke="#000000" d="M69.54797 50.26656 100.123 34.9788"/>
<path transform="matrix(.89438,.4472,.4472,-.89438,165.495,146.11919)" stroke-width=".31879" stroke-linecap="round" stroke-linejoin="round" fill="none" stroke="#000000" d="M-1.19551 1.59401C-1.09587 .99626 0 .09961 .29886 0 0-.09961-1.09587-.99626-1.19551-1.59401"/>
<path transform="matrix(1,0,0,-1,65.37201,181.09799)" stroke-width=".3985" stroke-linecap="butt" stroke-miterlimit="10" stroke-linejoin="miter" fill="none" stroke="#000000" d="M69.54797 6.42705 100.123 21.7148"/>
<path transform="matrix(.89438,-.4472,-.4472,-.89438,165.495,159.3832)" stroke-width=".31879" stroke-linecap="round" stroke-linejoin="round" fill="none" stroke="#000000" d="M-1.19551 1.59401C-1.09587 .99626 0 .09961 .29886 0 0-.09961-1.09587-.99626-1.19551-1.59401"/>
<path transform="matrix(1,0,0,-1,65.37201,181.09799)" stroke-width=".3985" stroke-linecap="butt" stroke-miterlimit="10" stroke-linejoin="miter" fill="none" stroke="#000000" d="M64.66571-44.73534 105.16093 16.00725"/>
<path transform="matrix(.55467,-.83202,-.83202,-.55467,170.53293,165.09076)" stroke-width=".31879" stroke-linecap="round" stroke-linejoin="round" fill="none" stroke="#000000" d="M-1.19551 1.59401C-1.09587 .99626 0 .09961 .29886 0 0-.09961-1.09587-.99626-1.19551-1.59401"/>
<path transform="matrix(1,0,0,-1,65.37201,181.09799)" stroke-width=".3985" stroke-linecap="butt" stroke-miterlimit="10" stroke-linejoin="miter" fill="none" stroke="#000000" d="M127.75989 28.3468H152.41527"/>
<path transform="matrix(1,0,0,-1,217.78728,152.75119)" stroke-width=".31879" stroke-linecap="round" stroke-linejoin="round" fill="none" stroke="#000000" d="M-1.19551 1.59401C-1.09587 .99626 0 .09961 .29886 0 0-.09961-1.09587-.99626-1.19551-1.59401"/>
<text xml:space="preserve" transform="matrix(1 0 -0 1 -104.774997 -156.271)" font-size="9.9626" font-family="LMRoman10"><tspan y="226.418" x="146.052 149.6485 155.1877 160.7269 166.2661 173.4591 176.22872 180.94101 185.92232 190.34572">Inputlayer</tspan></text>
<text xml:space="preserve" transform="matrix(1 0 -0 1 -51.677995 -184.61801)" font-size="9.9626" font-family="LMRoman10"><tspan y="226.418" x="146.052 153.52396 156.29357 161.83277 167.37197 171.79537 180.65212 183.42173 188.13402 193.11533 197.53873">Hiddenlayer</tspan></text>
<text xml:space="preserve" transform="matrix(1 0 -0 1 4.5970079 -127.87001)" font-size="9.9626" font-family="LMRoman10"><tspan y="226.418" x="146.052 153.8029 159.3421 163.21756 168.75676 174.29596 181.48897 184.25858 188.97087 193.95218 198.37558">Outputlayer</tspan></text>
<text xml:space="preserve" transform="matrix(1 0 -0 1 59.89601 -98.61101)" font-size="9.9626" font-family="LMRoman10"><tspan y="226.418" x="146.052 153.245 158.22629 162.15155 169.34456 172.39311 177.93231 183.47151 187.89492 191.77037 194.53998 199.52127">Costfunction</tspan></text>
<text xml:space="preserve" transform="matrix(1 0 -0 1 -80.67999 -45.320009)" font-size="9.9626" font-family="LMRoman10"><tspan y="319.401" x="77.763 84.26858 87.03818 92.01948 97.558689 101.46403 109.20496 114.186267 121.37926 132.16876 136.09403 138.86363 147.16248 152.70168 155.47129 163.21224 168.19353 171.51108 176.49237 179.80992 188.10877 191.15732 195.58072 200.00412 205.54332 208.59188 213.57317 217.4785 224.4025 229.38379 233.28913 242.13591 247.67511 252.09851 257.63774 261.54307 266.52436 272.61149 278.1507 282.5741 286.18058 293.0946 298.0759 301.98124 310.54908 317.74208 320.51167 324.38713 333.24388 337.66728 342.64857 346.57383 353.7668 356.81538 362.35459 367.8938 372.3172 376.19267 378.96226 383.94355">Figure1:Asimple3-4-1feedforwardneuralnetworkwithcostfunction</tspan></text>
<text xml:space="preserve" transform="matrix(1 0 -0 1 -80.67999 -45.320009)" font-size="9.9626" font-family="LMRoman10"><tspan y="630.635" x="231.133">1</tspan></text>
</svg>
