<?xml version="1.0" encoding="UTF-8" standalone="no"?>
<svg
   xmlns:dc="http://purl.org/dc/elements/1.1/"
   xmlns:cc="http://creativecommons.org/ns#"
   xmlns:rdf="http://www.w3.org/1999/02/22-rdf-syntax-ns#"
   xmlns:svg="http://www.w3.org/2000/svg"
   xmlns="http://www.w3.org/2000/svg"
   viewBox="0 0 321.33334 326.66666"
   height="326.66666"
   width="321.33334"
   xml:space="preserve"
   id="svg2"
   version="1.1"><metadata
     id="metadata8"><rdf:RDF><cc:Work
         rdf:about=""><dc:format>image/svg+xml</dc:format><dc:type
           rdf:resource="http://purl.org/dc/dcmitype/StillImage" /></cc:Work></rdf:RDF></metadata><defs
     id="defs6"><clipPath
       id="clipPath14"
       clipPathUnits="userSpaceOnUse"><path
         id="path12"
         d="M 0,0 H 612 V 792 H 0 Z" /></clipPath></defs><g
     clip-path="url(#clipPath14)"
     transform="matrix(1.3333333,0,0,-1.3333333,-238.66667,876)"
     id="g10"><g
       transform="translate(72,720)"
       id="g16"><g
         transform="translate(174.981,-226.418)"
         id="g18"><g
           id="g20"><g
             id="g22"><g
               id="g24"><path
                 id="path26"
                 style="fill:none;stroke:#000000;stroke-width:0.3985;stroke-linecap:butt;stroke-linejoin:miter;stroke-miterlimit:10;stroke-dasharray:none;stroke-opacity:1"
                 d="m 14.17339,85.04042 c 0,7.82785 -6.34555,14.1734 -14.17339,14.1734 -7.82784,0 -14.17339,-6.34555 -14.17339,-14.1734 0,-7.82785 6.34555,-14.1734 14.17339,-14.1734 7.82784,0 14.17339,6.34555 14.17339,14.1734 z" /><g
                 id="g28"><g
                   transform="scale(-1)"
                   id="g30"><g
                     id="g32" /><g
                     transform="rotate(180,87.4905,-113.209)"
                     id="g34"><g
                       id="g36" /><g
                       transform="translate(-5.082,83.643)"
                       id="g38"><text
                         id="text42"
                         style="font-style:italic;font-variant:normal;font-weight:normal;font-size:9.96259975px;font-family:CMMI10;-inkscape-font-specification:CMMI10;writing-mode:lr-tb;fill:#000000;fill-opacity:1;fill-rule:nonzero;stroke:none"
                         transform="matrix(1,0,0,-1,174.981,-226.418)"><tspan
                           id="tspan40"
                           y="0"
                           x="0">x</tspan></text>
<text
                         id="text46"
                         style="font-variant:normal;font-weight:normal;font-size:6.97380018px;font-family:CMR7;-inkscape-font-specification:CMR7;writing-mode:lr-tb;fill:#000000;fill-opacity:1;fill-rule:nonzero;stroke:none"
                         transform="matrix(1,0,0,-1,180.675,-227.912)"><tspan
                           id="tspan44"
                           y="0"
                           x="0">1</tspan></text>
</g><g
                       transform="translate(174.981,-226.418)"
                       id="g48" /></g></g></g></g><g
               id="g50"><path
                 id="path52"
                 style="fill:none;stroke:#000000;stroke-width:0.3985;stroke-linecap:butt;stroke-linejoin:miter;stroke-miterlimit:10;stroke-dasharray:none;stroke-opacity:1"
                 d="m 14.17339,28.3468 c 0,7.82785 -6.34555,14.1734 -14.17339,14.1734 -7.82784,0 -14.17339,-6.34555 -14.17339,-14.1734 0,-7.82785 6.34555,-14.1734 14.17339,-14.1734 7.82784,0 14.17339,6.34555 14.17339,14.1734 z" /><g
                 id="g54"><g
                   transform="scale(-1)"
                   id="g56"><g
                     id="g58" /><g
                     transform="rotate(180,87.4905,-113.209)"
                     id="g60"><g
                       id="g62" /><g
                       transform="translate(-5.082,26.949)"
                       id="g64"><text
                         id="text68"
                         style="font-style:italic;font-variant:normal;font-weight:normal;font-size:9.96259975px;font-family:CMMI10;-inkscape-font-specification:CMMI10;writing-mode:lr-tb;fill:#000000;fill-opacity:1;fill-rule:nonzero;stroke:none"
                         transform="matrix(1,0,0,-1,174.981,-226.418)"><tspan
                           id="tspan66"
                           y="0"
                           x="0">x</tspan></text>
<text
                         id="text72"
                         style="font-variant:normal;font-weight:normal;font-size:6.97380018px;font-family:CMR7;-inkscape-font-specification:CMR7;writing-mode:lr-tb;fill:#000000;fill-opacity:1;fill-rule:nonzero;stroke:none"
                         transform="matrix(1,0,0,-1,180.675,-227.912)"><tspan
                           id="tspan70"
                           y="0"
                           x="0">2</tspan></text>
</g><g
                       transform="translate(174.981,-226.418)"
                       id="g74" /></g></g></g></g><g
               id="g76"><path
                 id="path78"
                 style="fill:none;stroke:#000000;stroke-width:0.3985;stroke-linecap:butt;stroke-linejoin:miter;stroke-miterlimit:10;stroke-dasharray:none;stroke-opacity:1"
                 d="m 14.17339,-28.3468 c 0,7.82785 -6.34555,14.1734 -14.17339,14.1734 -7.82784,0 -14.17339,-6.34555 -14.17339,-14.1734 0,-7.82785 6.34555,-14.1734 14.17339,-14.1734 7.82784,0 14.17339,6.34555 14.17339,14.1734 z" /><g
                 id="g80"><g
                   transform="scale(-1)"
                   id="g82"><g
                     id="g84" /><g
                     transform="rotate(180,87.4905,-113.209)"
                     id="g86"><g
                       id="g88" /><g
                       transform="translate(-5.082,-29.744)"
                       id="g90"><text
                         id="text94"
                         style="font-style:italic;font-variant:normal;font-weight:normal;font-size:9.96259975px;font-family:CMMI10;-inkscape-font-specification:CMMI10;writing-mode:lr-tb;fill:#000000;fill-opacity:1;fill-rule:nonzero;stroke:none"
                         transform="matrix(1,0,0,-1,174.981,-226.418)"><tspan
                           id="tspan92"
                           y="0"
                           x="0">x</tspan></text>
<text
                         id="text98"
                         style="font-variant:normal;font-weight:normal;font-size:6.97380018px;font-family:CMR7;-inkscape-font-specification:CMR7;writing-mode:lr-tb;fill:#000000;fill-opacity:1;fill-rule:nonzero;stroke:none"
                         transform="matrix(1,0,0,-1,180.675,-227.912)"><tspan
                           id="tspan96"
                           y="0"
                           x="0">3</tspan></text>
</g><g
                       transform="translate(174.981,-226.418)"
                       id="g100" /></g></g></g></g><g
               id="g102"><path
                 id="path104"
                 style="fill:none;stroke:#000000;stroke-width:0.3985;stroke-linecap:butt;stroke-linejoin:miter;stroke-miterlimit:10;stroke-dasharray:none;stroke-opacity:1"
                 d="m 70.867,113.38724 c 0,7.82783 -6.34555,14.17338 -14.17338,14.17338 -7.82785,0 -14.1734,-6.34555 -14.1734,-14.17338 0,-7.82785 6.34555,-14.1734 14.1734,-14.1734 7.82783,0 14.17338,6.34555 14.17338,14.1734 z" /><g
                 id="g106"><g
                   transform="scale(-1)"
                   id="g108"><g
                     id="g110" /><g
                     transform="rotate(180,87.4905,-113.209)"
                     id="g112"><g
                       id="g114" /><g
                       transform="translate(56.694,113.387)"
                       id="g116" /><g
                       transform="translate(174.981,-226.418)"
                       id="g118" /></g></g></g></g><g
               id="g120"><path
                 id="path122"
                 style="fill:none;stroke:#000000;stroke-width:0.3985;stroke-linecap:butt;stroke-linejoin:miter;stroke-miterlimit:10;stroke-dasharray:none;stroke-opacity:1"
                 d="m 70.867,56.69362 c 0,7.82783 -6.34555,14.17338 -14.17338,14.17338 -7.82785,0 -14.1734,-6.34555 -14.1734,-14.17338 0,-7.82785 6.34555,-14.1734 14.1734,-14.1734 7.82783,0 14.17338,6.34555 14.17338,14.1734 z" /><g
                 id="g124"><g
                   transform="scale(-1)"
                   id="g126"><g
                     id="g128" /><g
                     transform="rotate(180,87.4905,-113.209)"
                     id="g130"><g
                       id="g132" /><g
                       transform="translate(56.694,56.694)"
                       id="g134" /><g
                       transform="translate(174.981,-226.418)"
                       id="g136" /></g></g></g></g><g
               id="g138"><path
                 id="path140"
                 style="fill:none;stroke:#000000;stroke-width:0.3985;stroke-linecap:butt;stroke-linejoin:miter;stroke-miterlimit:10;stroke-dasharray:none;stroke-opacity:1"
                 d="m 70.867,0 c 0,7.82784 -6.34555,14.17339 -14.17338,14.17339 -7.82785,0 -14.1734,-6.34555 -14.1734,-14.17339 0,-7.82784 6.34555,-14.17339 14.1734,-14.17339 7.82783,0 14.17338,6.34555 14.17338,14.17339 z" /><g
                 id="g142"><g
                   transform="scale(-1)"
                   id="g144"><g
                     id="g146" /><g
                     transform="rotate(180,87.4905,-113.209)"
                     id="g148"><g
                       id="g150" /><g
                       transform="translate(56.694)"
                       id="g152" /><g
                       transform="translate(174.981,-226.418)"
                       id="g154" /></g></g></g></g><g
               id="g156"><path
                 id="path158"
                 style="fill:none;stroke:#000000;stroke-width:0.3985;stroke-linecap:butt;stroke-linejoin:miter;stroke-miterlimit:10;stroke-dasharray:none;stroke-opacity:1"
                 d="m 70.867,-56.69362 c 0,7.82785 -6.34555,14.1734 -14.17338,14.1734 -7.82785,0 -14.1734,-6.34555 -14.1734,-14.1734 0,-7.82783 6.34555,-14.17338 14.1734,-14.17338 7.82783,0 14.17338,6.34555 14.17338,14.17338 z" /><g
                 id="g160"><g
                   transform="scale(-1)"
                   id="g162"><g
                     id="g164" /><g
                     transform="rotate(180,87.4905,-113.209)"
                     id="g166"><g
                       id="g168" /><g
                       transform="translate(56.694,-56.694)"
                       id="g170" /><g
                       transform="translate(174.981,-226.418)"
                       id="g172" /></g></g></g></g><g
               id="g174"><path
                 id="path176"
                 style="fill:none;stroke:#000000;stroke-width:0.3985;stroke-linecap:butt;stroke-linejoin:miter;stroke-miterlimit:10;stroke-dasharray:none;stroke-opacity:1"
                 d="m 127.56062,28.3468 c 0,7.82785 -6.34555,14.1734 -14.17338,14.1734 -7.82785,0 -14.1734,-6.34555 -14.1734,-14.1734 0,-7.82785 6.34555,-14.1734 14.1734,-14.1734 7.82783,0 14.17338,6.34555 14.17338,14.1734 z" /><g
                 id="g178"><g
                   transform="scale(-1)"
                   id="g180"><g
                     id="g182" /><g
                     transform="rotate(180,87.4905,-113.209)"
                     id="g184"><g
                       id="g186" /><g
                       transform="translate(110.757,25.921)"
                       id="g188"><text
                         id="text192"
                         style="font-variant:normal;font-size:9.96259975px;font-family:LMRoman10-Regular-Identity;-inkscape-font-specification:LMRoman10-Regular-Identity-H;writing-mode:lr-tb;fill:#000000;fill-opacity:1;fill-rule:nonzero;stroke:none"
                         transform="matrix(1,0,0,-1,174.981,-226.418)"><tspan
                           id="tspan190"
                           y="0"
                           x="0">ŷ</tspan></text>
</g><g
                       transform="translate(174.981,-226.418)"
                       id="g194" /></g></g></g></g><path
               id="path196"
               style="fill:none;stroke:#000000;stroke-width:0.3985;stroke-linecap:butt;stroke-linejoin:miter;stroke-miterlimit:10;stroke-dasharray:none;stroke-opacity:1"
               d="m 12.85435,91.46748 30.57503,15.28775" /><g
               transform="matrix(0.89438,0.4472,-0.4472,0.89438,43.42937,106.75523)"
               id="g198"><g
                 id="g200"><path
                   id="path202"
                   style="fill:none;stroke:#000000;stroke-width:0.31878999;stroke-linecap:round;stroke-linejoin:round;stroke-miterlimit:10;stroke-dasharray:none;stroke-opacity:1"
                   d="M -1.19551,1.59401 C -1.09587,0.99626 0,0.09961 0.29886,0 0,-0.09961 -1.09587,-0.99626 -1.19551,-1.59401" /></g></g><path
               id="path204"
               style="fill:none;stroke:#000000;stroke-width:0.3985;stroke-linecap:butt;stroke-linejoin:miter;stroke-miterlimit:10;stroke-dasharray:none;stroke-opacity:1"
               d="M 12.85435,78.61336 43.42938,63.3256" /><g
               transform="matrix(0.89438,-0.4472,0.4472,0.89438,43.42937,63.3256)"
               id="g206"><g
                 id="g208"><path
                   id="path210"
                   style="fill:none;stroke:#000000;stroke-width:0.31878999;stroke-linecap:round;stroke-linejoin:round;stroke-miterlimit:10;stroke-dasharray:none;stroke-opacity:1"
                   d="M -1.19551,1.59401 C -1.09587,0.99626 0,0.09961 0.29886,0 0,-0.09961 -1.09587,-0.99626 -1.19551,-1.59401" /></g></g><path
               id="path212"
               style="fill:none;stroke:#000000;stroke-width:0.3985;stroke-linecap:butt;stroke-linejoin:miter;stroke-miterlimit:10;stroke-dasharray:none;stroke-opacity:1"
               d="M 7.97209,73.08215 48.46732,12.33954" /><g
               transform="matrix(0.55467,-0.83202,0.83202,0.55467,48.46732,12.33955)"
               id="g214"><g
                 id="g216"><path
                   id="path218"
                   style="fill:none;stroke:#000000;stroke-width:0.31878999;stroke-linecap:round;stroke-linejoin:round;stroke-miterlimit:10;stroke-dasharray:none;stroke-opacity:1"
                   d="M -1.19551,1.59401 C -1.09587,0.99626 0,0.09961 0.29886,0 0,-0.09961 -1.09587,-0.99626 -1.19551,-1.59401" /></g></g><path
               id="path220"
               style="fill:none;stroke:#000000;stroke-width:0.3985;stroke-linecap:butt;stroke-linejoin:miter;stroke-miterlimit:10;stroke-dasharray:none;stroke-opacity:1"
               d="M 5.33752,71.69633 51.18588,-42.92406" /><g
               transform="matrix(0.37137,-0.92844,0.92844,0.37137,51.18588,-42.92404)"
               id="g222"><g
                 id="g224"><path
                   id="path226"
                   style="fill:none;stroke:#000000;stroke-width:0.31878999;stroke-linecap:round;stroke-linejoin:round;stroke-miterlimit:10;stroke-dasharray:none;stroke-opacity:1"
                   d="M -1.19551,1.59401 C -1.09587,0.99626 0,0.09961 0.29886,0 0,-0.09961 -1.09587,-0.99626 -1.19551,-1.59401" /></g></g><path
               id="path228"
               style="fill:none;stroke:#000000;stroke-width:0.3985;stroke-linecap:butt;stroke-linejoin:miter;stroke-miterlimit:10;stroke-dasharray:none;stroke-opacity:1"
               d="m 7.97209,40.30507 40.49523,60.74261" /><g
               transform="matrix(0.55467,0.83202,-0.83202,0.55467,48.46732,101.04767)"
               id="g230"><g
                 id="g232"><path
                   id="path234"
                   style="fill:none;stroke:#000000;stroke-width:0.31878999;stroke-linecap:round;stroke-linejoin:round;stroke-miterlimit:10;stroke-dasharray:none;stroke-opacity:1"
                   d="M -1.19551,1.59401 C -1.09587,0.99626 0,0.09961 0.29886,0 0,-0.09961 -1.09587,-0.99626 -1.19551,-1.59401" /></g></g><path
               id="path236"
               style="fill:none;stroke:#000000;stroke-width:0.3985;stroke-linecap:butt;stroke-linejoin:miter;stroke-miterlimit:10;stroke-dasharray:none;stroke-opacity:1"
               d="M 12.85435,34.77386 43.42938,50.06161" /><g
               transform="matrix(0.89438,0.4472,-0.4472,0.89438,43.42937,50.06161)"
               id="g238"><g
                 id="g240"><path
                   id="path242"
                   style="fill:none;stroke:#000000;stroke-width:0.31878999;stroke-linecap:round;stroke-linejoin:round;stroke-miterlimit:10;stroke-dasharray:none;stroke-opacity:1"
                   d="M -1.19551,1.59401 C -1.09587,0.99626 0,0.09961 0.29886,0 0,-0.09961 -1.09587,-0.99626 -1.19551,-1.59401" /></g></g><path
               id="path244"
               style="fill:none;stroke:#000000;stroke-width:0.3985;stroke-linecap:butt;stroke-linejoin:miter;stroke-miterlimit:10;stroke-dasharray:none;stroke-opacity:1"
               d="M 12.85435,21.91974 43.42938,6.63199" /><g
               transform="matrix(0.89438,-0.4472,0.4472,0.89438,43.42937,6.63199)"
               id="g246"><g
                 id="g248"><path
                   id="path250"
                   style="fill:none;stroke:#000000;stroke-width:0.31878999;stroke-linecap:round;stroke-linejoin:round;stroke-miterlimit:10;stroke-dasharray:none;stroke-opacity:1"
                   d="M -1.19551,1.59401 C -1.09587,0.99626 0,0.09961 0.29886,0 0,-0.09961 -1.09587,-0.99626 -1.19551,-1.59401" /></g></g><path
               id="path252"
               style="fill:none;stroke:#000000;stroke-width:0.3985;stroke-linecap:butt;stroke-linejoin:miter;stroke-miterlimit:10;stroke-dasharray:none;stroke-opacity:1"
               d="M 7.97209,16.38853 48.46732,-44.35406" /><g
               transform="matrix(0.55467,-0.83202,0.83202,0.55467,48.46732,-44.35405)"
               id="g254"><g
                 id="g256"><path
                   id="path258"
                   style="fill:none;stroke:#000000;stroke-width:0.31878999;stroke-linecap:round;stroke-linejoin:round;stroke-miterlimit:10;stroke-dasharray:none;stroke-opacity:1"
                   d="M -1.19551,1.59401 C -1.09587,0.99626 0,0.09961 0.29886,0 0,-0.09961 -1.09587,-0.99626 -1.19551,-1.59401" /></g></g><path
               id="path260"
               style="fill:none;stroke:#000000;stroke-width:0.3985;stroke-linecap:butt;stroke-linejoin:miter;stroke-miterlimit:10;stroke-dasharray:none;stroke-opacity:1"
               d="M 5.33752,-15.00272 51.18588,99.61768" /><g
               transform="matrix(0.37137,0.92844,-0.92844,0.37137,51.18588,99.61766)"
               id="g262"><g
                 id="g264"><path
                   id="path266"
                   style="fill:none;stroke:#000000;stroke-width:0.31878999;stroke-linecap:round;stroke-linejoin:round;stroke-miterlimit:10;stroke-dasharray:none;stroke-opacity:1"
                   d="M -1.19551,1.59401 C -1.09587,0.99626 0,0.09961 0.29886,0 0,-0.09961 -1.09587,-0.99626 -1.19551,-1.59401" /></g></g><path
               id="path268"
               style="fill:none;stroke:#000000;stroke-width:0.3985;stroke-linecap:butt;stroke-linejoin:miter;stroke-miterlimit:10;stroke-dasharray:none;stroke-opacity:1"
               d="M 7.97209,-16.38853 48.46732,44.35406" /><g
               transform="matrix(0.55467,0.83202,-0.83202,0.55467,48.46732,44.35405)"
               id="g270"><g
                 id="g272"><path
                   id="path274"
                   style="fill:none;stroke:#000000;stroke-width:0.31878999;stroke-linecap:round;stroke-linejoin:round;stroke-miterlimit:10;stroke-dasharray:none;stroke-opacity:1"
                   d="M -1.19551,1.59401 C -1.09587,0.99626 0,0.09961 0.29886,0 0,-0.09961 -1.09587,-0.99626 -1.19551,-1.59401" /></g></g><path
               id="path276"
               style="fill:none;stroke:#000000;stroke-width:0.3985;stroke-linecap:butt;stroke-linejoin:miter;stroke-miterlimit:10;stroke-dasharray:none;stroke-opacity:1"
               d="M 12.85435,-21.91974 43.42938,-6.63199" /><g
               transform="matrix(0.89438,0.4472,-0.4472,0.89438,43.42937,-6.63199)"
               id="g278"><g
                 id="g280"><path
                   id="path282"
                   style="fill:none;stroke:#000000;stroke-width:0.31878999;stroke-linecap:round;stroke-linejoin:round;stroke-miterlimit:10;stroke-dasharray:none;stroke-opacity:1"
                   d="M -1.19551,1.59401 C -1.09587,0.99626 0,0.09961 0.29886,0 0,-0.09961 -1.09587,-0.99626 -1.19551,-1.59401" /></g></g><path
               id="path284"
               style="fill:none;stroke:#000000;stroke-width:0.3985;stroke-linecap:butt;stroke-linejoin:miter;stroke-miterlimit:10;stroke-dasharray:none;stroke-opacity:1"
               d="M 12.85435,-34.77386 43.42938,-50.06161" /><g
               transform="matrix(0.89438,-0.4472,0.4472,0.89438,43.42937,-50.06161)"
               id="g286"><g
                 id="g288"><path
                   id="path290"
                   style="fill:none;stroke:#000000;stroke-width:0.31878999;stroke-linecap:round;stroke-linejoin:round;stroke-miterlimit:10;stroke-dasharray:none;stroke-opacity:1"
                   d="M -1.19551,1.59401 C -1.09587,0.99626 0,0.09961 0.29886,0 0,-0.09961 -1.09587,-0.99626 -1.19551,-1.59401" /></g></g><path
               id="path292"
               style="fill:none;stroke:#000000;stroke-width:0.3985;stroke-linecap:butt;stroke-linejoin:miter;stroke-miterlimit:10;stroke-dasharray:none;stroke-opacity:1"
               d="m 64.66571,101.42896 40.49522,-60.7426" /><g
               transform="matrix(0.55467,-0.83202,0.83202,0.55467,105.16093,40.68637)"
               id="g294"><g
                 id="g296"><path
                   id="path298"
                   style="fill:none;stroke:#000000;stroke-width:0.31878999;stroke-linecap:round;stroke-linejoin:round;stroke-miterlimit:10;stroke-dasharray:none;stroke-opacity:1"
                   d="M -1.19551,1.59401 C -1.09587,0.99626 0,0.09961 0.29886,0 0,-0.09961 -1.09587,-0.99626 -1.19551,-1.59401" /></g></g><path
               id="path300"
               style="fill:none;stroke:#000000;stroke-width:0.3985;stroke-linecap:butt;stroke-linejoin:miter;stroke-miterlimit:10;stroke-dasharray:none;stroke-opacity:1"
               d="M 69.54797,50.26656 100.123,34.9788" /><g
               transform="matrix(0.89438,-0.4472,0.4472,0.89438,100.12299,34.9788)"
               id="g302"><g
                 id="g304"><path
                   id="path306"
                   style="fill:none;stroke:#000000;stroke-width:0.31878999;stroke-linecap:round;stroke-linejoin:round;stroke-miterlimit:10;stroke-dasharray:none;stroke-opacity:1"
                   d="M -1.19551,1.59401 C -1.09587,0.99626 0,0.09961 0.29886,0 0,-0.09961 -1.09587,-0.99626 -1.19551,-1.59401" /></g></g><path
               id="path308"
               style="fill:none;stroke:#000000;stroke-width:0.3985;stroke-linecap:butt;stroke-linejoin:miter;stroke-miterlimit:10;stroke-dasharray:none;stroke-opacity:1"
               d="M 69.54797,6.42705 100.123,21.7148" /><g
               transform="matrix(0.89438,0.4472,-0.4472,0.89438,100.12299,21.7148)"
               id="g310"><g
                 id="g312"><path
                   id="path314"
                   style="fill:none;stroke:#000000;stroke-width:0.31878999;stroke-linecap:round;stroke-linejoin:round;stroke-miterlimit:10;stroke-dasharray:none;stroke-opacity:1"
                   d="M -1.19551,1.59401 C -1.09587,0.99626 0,0.09961 0.29886,0 0,-0.09961 -1.09587,-0.99626 -1.19551,-1.59401" /></g></g><path
               id="path316"
               style="fill:none;stroke:#000000;stroke-width:0.3985;stroke-linecap:butt;stroke-linejoin:miter;stroke-miterlimit:10;stroke-dasharray:none;stroke-opacity:1"
               d="m 64.66571,-44.73534 40.49522,60.74259" /><g
               transform="matrix(0.55467,0.83202,-0.83202,0.55467,105.16093,16.00723)"
               id="g318"><g
                 id="g320"><path
                   id="path322"
                   style="fill:none;stroke:#000000;stroke-width:0.31878999;stroke-linecap:round;stroke-linejoin:round;stroke-miterlimit:10;stroke-dasharray:none;stroke-opacity:1"
                   d="M -1.19551,1.59401 C -1.09587,0.99626 0,0.09961 0.29886,0 0,-0.09961 -1.09587,-0.99626 -1.19551,-1.59401" /></g></g><g
               id="g324"><g
                 id="g326"><g
                   transform="scale(-1)"
                   id="g328"><g
                     id="g330" /><g
                     transform="rotate(180,87.4905,-113.209)"
                     id="g332"><g
                       id="g334" /><g
                       transform="translate(-24.095,110.951)"
                       id="g336"><text
                         id="text340"
                         style="font-variant:normal;font-size:9.96259975px;font-family:LMRoman10-Regular-Identity;-inkscape-font-specification:LMRoman10-Regular-Identity-H;writing-mode:lr-tb;fill:#000000;fill-opacity:1;fill-rule:nonzero;stroke:none"
                         transform="matrix(1,0,0,-1,174.981,-226.418)"><tspan
                           id="tspan338"
                           y="0"
                           x="0 3.5964985 9.135704 14.67491 20.214115 27.407112 30.176716 34.889027 39.870327 44.29372">Inputlayer</tspan></text>
</g><g
                       transform="translate(174.981,-226.418)"
                       id="g342" /></g></g></g></g><g
               id="g344"><g
                 id="g346"><g
                   transform="scale(-1)"
                   id="g348"><g
                     id="g350" /><g
                     transform="rotate(180,87.4905,-113.209)"
                     id="g352"><g
                       id="g354" /><g
                       transform="translate(29.002,139.298)"
                       id="g356"><text
                         id="text360"
                         style="font-variant:normal;font-size:9.96259975px;font-family:LMRoman10-Regular-Identity;-inkscape-font-specification:LMRoman10-Regular-Identity-H;writing-mode:lr-tb;fill:#000000;fill-opacity:1;fill-rule:nonzero;stroke:none"
                         transform="matrix(1,0,0,-1,174.981,-226.418)"><tspan
                           id="tspan358"
                           y="0"
                           x="0 7.4719501 10.241552 15.780759 21.319963 25.743359 34.600109 37.369713 42.082024 47.063324 51.486717">Hiddenlayer</tspan></text>
</g><g
                       transform="translate(174.981,-226.418)"
                       id="g362" /></g></g></g></g><g
               id="g364"><g
                 id="g366"><g
                   transform="scale(-1)"
                   id="g368"><g
                     id="g370" /><g
                     transform="rotate(180,87.4905,-113.209)"
                     id="g372"><g
                       id="g374" /><g
                       transform="translate(85.277,82.55)"
                       id="g376"><text
                         id="text380"
                         style="font-variant:normal;font-size:9.96259975px;font-family:LMRoman10-Regular-Identity;-inkscape-font-specification:LMRoman10-Regular-Identity-H;writing-mode:lr-tb;fill:#000000;fill-opacity:1;fill-rule:nonzero;stroke:none"
                         transform="matrix(1,0,0,-1,174.981,-226.418)"><tspan
                           id="tspan378"
                           y="0"
                           x="0 7.7509027 13.290109 17.16556 22.704765 28.243971 35.43697 38.20657 42.91888 47.900181 52.323574">Outputlayer</tspan></text>
</g><g
                       transform="translate(174.981,-226.418)"
                       id="g382" /></g></g></g></g></g></g></g><text
         id="text386"
         style="font-variant:normal;font-size:9.96259975px;font-family:LMRoman10-Regular-Identity;-inkscape-font-specification:LMRoman10-Regular-Identity-H;writing-mode:lr-tb;fill:#000000;fill-opacity:1;fill-rule:nonzero;stroke:none"
         transform="matrix(1,0,0,-1,118.889,-319.401)"><tspan
           id="tspan384"
           y="0"
           x="0 6.5055776 9.2751808 14.25648 19.795687 23.701025 31.441965 36.423267 43.616264 54.405758 58.331024 61.100624 69.399475 74.938675 77.708282 85.449219 90.430519 93.74807 98.729362 102.04691 110.34576 113.39431 117.81771 122.2411 127.7803 130.82886 135.81017 139.7155 146.63951 151.6208 155.52615 164.37294 169.91214 174.33554 179.87474 183.78008 188.76138 194.84853 200.38774 204.81113 208.41759 215.33163 220.31294 224.21828">Figure1:Asimple3-4-1feedforwardneuralnetwork</tspan></text>
<text
         id="text390"
         style="font-variant:normal;font-size:9.96259975px;font-family:LMRoman10-Regular-Identity;-inkscape-font-specification:LMRoman10-Regular-Identity-H;writing-mode:lr-tb;fill:#000000;fill-opacity:1;fill-rule:nonzero;stroke:none"
         transform="matrix(1,0,0,-1,231.133,-630.635)"><tspan
           id="tspan388"
           y="0"
           x="0">1</tspan></text>
</g></g></svg>