<svg xmlns="http://www.w3.org/2000/svg" xmlns:xlink="http://www.w3.org/1999/xlink" xmlns:inkscape="http://www.inkscape.org/namespaces/inkscape" version="1.1" width="329.616" height="137.63" viewBox="0 0 329.616 137.63">
<path transform="matrix(1,0,0,-1,46.76,67.34701)" stroke-width=".79701" stroke-linecap="butt" stroke-miterlimit="10" stroke-linejoin="miter" fill="none" stroke="#000000" d="M-37.46002-37.46002H37.46004V37.46004H-37.46002Z"/>
<path transform="matrix(1,0,0,-1,21.854,42.441007)" d="M-12.45346-12.45346H12.453481V12.453481H-12.45346Z" fill="#ffffff"/>
<path transform="matrix(1,0,0,-1,21.854,42.441007)" stroke-width=".19925" stroke-linecap="butt" stroke-miterlimit="10" stroke-linejoin="miter" fill="none" stroke="#000000" d="M-12.45346-12.45346H12.453481V12.453481H-12.45346Z"/>
<text xml:space="preserve" transform="matrix(1 0 -0 1 .0000009536743 137.63)" font-size="6.9738" font-family="CMMI7" font-style="italic"><tspan y="-96.713" x="15.407 20.093394">&#x2202;a</tspan></text>
<text xml:space="preserve" transform="matrix(1 0 -0 1 .0000009536743 137.63)" font-size="4.9813" font-family="CMMI5" font-style="italic"><tspan y="-99.718997" x="24.411999">l</tspan></text>
<text xml:space="preserve" transform="matrix(1 0 -0 1 .0000009536743 137.63)" font-size="4.9813" font-family="CMR5"><tspan y="-94.71999" x="24.411999">1</tspan></text>
<path transform="matrix(1,0,0,-1,12.991001,43.507005)" stroke-width=".398" stroke-linecap="butt" stroke-miterlimit="10" stroke-linejoin="miter" fill="none" stroke="#000000" d="M0 0H17.725"/>
<text xml:space="preserve" transform="matrix(1 0 -0 1 .0000009536743 137.63)" font-size="6.9738" font-family="CMMI7" font-style="italic"><tspan y="-88.196" x="12.991 17.677393">&#x2202;w</tspan></text>
<text xml:space="preserve" transform="matrix(1 0 -0 1 .0000009536743 137.63)" font-size="4.9813" font-family="CMR5"><tspan y="-87.2" x="23.438 26.830265">11</tspan></text>
<path transform="matrix(1,0,0,-1,46.760004,42.441007)" d="M-12.45346-12.45346H12.453481V12.453481H-12.45346Z" fill="#ffffff"/>
<path transform="matrix(1,0,0,-1,46.760004,42.441007)" stroke-width=".19925" stroke-linecap="butt" stroke-miterlimit="10" stroke-linejoin="miter" fill="none" stroke="#000000" d="M-12.45346-12.45346H12.453481V12.453481H-12.45346Z"/>
<text xml:space="preserve" transform="matrix(1 0 -0 1 0 137.63)" font-size="9.9626" font-family="CMSY10" font-style="italic"><tspan y="-92.975" x="40.949 45.38236 49.805757">&#x00b7;&#x00b7;&#x00b7;</tspan></text>
<path transform="matrix(1,0,0,-1,71.667,42.441007)" d="M-12.45346-12.45346H12.453481V12.453481H-12.45346Z" fill="#ffffff"/>
<path transform="matrix(1,0,0,-1,71.667,42.441007)" stroke-width=".19925" stroke-linecap="butt" stroke-miterlimit="10" stroke-linejoin="miter" fill="none" stroke="#000000" d="M-12.45346-12.45346H12.453481V12.453481H-12.45346Z"/>
<text xml:space="preserve" transform="matrix(1 0 -0 1 0 137.63)" font-size="6.9738" font-family="CMMI7" font-style="italic"><tspan y="-96.713" x="65.22 69.906398">&#x2202;a</tspan></text>
<text xml:space="preserve" transform="matrix(1 0 -0 1 0 137.63)" font-size="4.9813" font-family="CMMI5" font-style="italic"><tspan y="-99.718997" x="74.225">l</tspan></text>
<text xml:space="preserve" transform="matrix(1 0 -0 1 0 137.63)" font-size="4.9813" font-family="CMR5"><tspan y="-94.71999" x="74.225">1</tspan></text>
<path transform="matrix(1,0,0,-1,62.306,43.507005)" stroke-width=".398" stroke-linecap="butt" stroke-miterlimit="10" stroke-linejoin="miter" fill="none" stroke="#000000" d="M0 0H18.723"/>
<text xml:space="preserve" transform="matrix(1 0 -0 1 0 137.63)" font-size="6.9738" font-family="CMMI7" font-style="italic"><tspan y="-88.196" x="62.306 66.98542">&#x2202;w</tspan></text>
<text xml:space="preserve" transform="matrix(1 0 -0 1 0 137.63)" font-size="4.9813" font-family="CMR5"><tspan y="-87.2" x="72.753">1</tspan></text>
<text xml:space="preserve" transform="matrix(1 0 -0 1 0 137.63)" font-size="4.9813" font-family="CMMI5" font-style="italic"><tspan y="-87.2" x="76.143">n</tspan></text>
<path transform="matrix(1,0,0,-1,21.854,67.34701)" d="M-12.45346-12.45346H12.453481V12.453481H-12.45346Z" fill="#ffffff"/>
<path transform="matrix(1,0,0,-1,21.854,67.34701)" stroke-width=".19925" stroke-linecap="butt" stroke-miterlimit="10" stroke-linejoin="miter" fill="none" stroke="#000000" d="M-12.45346-12.45346H12.453481V12.453481H-12.45346Z"/>
<text xml:space="preserve" transform="matrix(1 0 -0 1 0 137.63)" font-size="9.9626" font-family="CMR10"><tspan y="-70.753" x="20.47">.</tspan><tspan y="-66.768" x="20.47">.</tspan><tspan y="-62.782999" x="20.47">.</tspan></text>
<path transform="matrix(1,0,0,-1,46.760004,67.34701)" d="M-12.45346-12.45346H12.453481V12.453481H-12.45346Z" fill="#ffffff"/>
<path transform="matrix(1,0,0,-1,46.760004,67.34701)" stroke-width=".19925" stroke-linecap="butt" stroke-miterlimit="10" stroke-linejoin="miter" fill="none" stroke="#000000" d="M-12.45346-12.45346H12.453481V12.453481H-12.45346Z"/>
<text xml:space="preserve" transform="matrix(1 0 -0 1 0 137.63)" font-size="9.9626" font-family="CMR10"><tspan y="-69.757" x="41.502">.</tspan><tspan y="-66.768009" x="45.377">.</tspan><tspan y="-63.779008" x="49.251">.</tspan></text>
<path transform="matrix(1,0,0,-1,71.667,67.34701)" d="M-12.45346-12.45346H12.453481V12.453481H-12.45346Z" fill="#ffffff"/>
<path transform="matrix(1,0,0,-1,71.667,67.34701)" stroke-width=".19925" stroke-linecap="butt" stroke-miterlimit="10" stroke-linejoin="miter" fill="none" stroke="#000000" d="M-12.45346-12.45346H12.453481V12.453481H-12.45346Z"/>
<text xml:space="preserve" transform="matrix(1 0 -0 1 0 137.63)" font-size="9.9626" font-family="CMR10"><tspan y="-70.753" x="70.283">.</tspan><tspan y="-66.768" x="70.283">.</tspan><tspan y="-62.782999" x="70.283">.</tspan></text>
<path transform="matrix(1,0,0,-1,21.854,92.254009)" d="M-12.45346-12.45346H12.453481V12.453481H-12.45346Z" fill="#ffffff"/>
<path transform="matrix(1,0,0,-1,21.854,92.254009)" stroke-width=".19925" stroke-linecap="butt" stroke-miterlimit="10" stroke-linejoin="miter" fill="none" stroke="#000000" d="M-12.45346-12.45346H12.453481V12.453481H-12.45346Z"/>
<text xml:space="preserve" transform="matrix(1 0 -0 1 0 137.63)" font-size="6.9738" font-family="CMMI7" font-style="italic"><tspan y="-46.9" x="15.407 20.093394">&#x2202;a</tspan></text>
<text xml:space="preserve" transform="matrix(1 0 -0 1 0 137.63)" font-size="4.9813" font-family="CMMI5" font-style="italic"><tspan y="-49.906003" x="24.411999">l</tspan></text>
<text xml:space="preserve" transform="matrix(1 0 -0 1 0 137.63)" font-size="4.9813" font-family="CMR5"><tspan y="-44.907" x="24.411999">1</tspan></text>
<path transform="matrix(1,0,0,-1,11.628,93.32101)" stroke-width=".398" stroke-linecap="butt" stroke-miterlimit="10" stroke-linejoin="miter" fill="none" stroke="#000000" d="M0 0H20.452"/>
<text xml:space="preserve" transform="matrix(1 0 -0 1 0 137.63)" font-size="6.9738" font-family="CMMI7" font-style="italic"><tspan y="-38.383" x="11.628 16.30742">&#x2202;w</tspan></text>
<text xml:space="preserve" transform="matrix(1 0 -0 1 0 137.63)" font-size="4.9813" font-family="CMMI5" font-style="italic"><tspan y="-37.387" x="22.075">m</tspan></text>
<text xml:space="preserve" transform="matrix(1 0 -0 1 0 137.63)" font-size="4.9813" font-family="CMR5"><tspan y="-37.387" x="28.192002">1</tspan></text>
<path transform="matrix(1,0,0,-1,46.760004,92.254009)" d="M-12.45346-12.45346H12.453481V12.453481H-12.45346Z" fill="#ffffff"/>
<path transform="matrix(1,0,0,-1,46.760004,92.254009)" stroke-width=".19925" stroke-linecap="butt" stroke-miterlimit="10" stroke-linejoin="miter" fill="none" stroke="#000000" d="M-12.45346-12.45346H12.453481V12.453481H-12.45346Z"/>
<text xml:space="preserve" transform="matrix(1 0 -0 1 0 137.63)" font-size="9.9626" font-family="CMSY10" font-style="italic"><tspan y="-43.162" x="40.949 45.38236 49.805757">&#x00b7;&#x00b7;&#x00b7;</tspan></text>
<path transform="matrix(1,0,0,-1,71.667,92.254009)" d="M-12.45346-12.45346H12.453481V12.453481H-12.45346Z" fill="#ffffff"/>
<path transform="matrix(1,0,0,-1,71.667,92.254009)" stroke-width=".19925" stroke-linecap="butt" stroke-miterlimit="10" stroke-linejoin="miter" fill="none" stroke="#000000" d="M-12.45346-12.45346H12.453481V12.453481H-12.45346Z"/>
<text xml:space="preserve" transform="matrix(1 0 -0 1 0 137.63)" font-size="6.9738" font-family="CMMI7" font-style="italic"><tspan y="-46.9" x="65.22 69.906398">&#x2202;a</tspan></text>
<text xml:space="preserve" transform="matrix(1 0 -0 1 0 137.63)" font-size="4.9813" font-family="CMMI5" font-style="italic"><tspan y="-49.906003" x="74.225">l</tspan></text>
<text xml:space="preserve" transform="matrix(1 0 -0 1 0 137.63)" font-size="4.9813" font-family="CMR5"><tspan y="-44.907" x="74.225">1</tspan></text>
<path transform="matrix(1,0,0,-1,60.942,93.32101)" stroke-width=".398" stroke-linecap="butt" stroke-miterlimit="10" stroke-linejoin="miter" fill="none" stroke="#000000" d="M0 0H21.45"/>
<text xml:space="preserve" transform="matrix(1 0 -0 1 0 137.63)" font-size="6.9738" font-family="CMMI7" font-style="italic"><tspan y="-38.383" x="60.942 65.628398">&#x2202;w</tspan></text>
<text xml:space="preserve" transform="matrix(1 0 -0 1 0 137.63)" font-size="4.9813" font-family="CMMI5" font-style="italic"><tspan y="-37.387" x="71.389 77.506038">mn</tspan></text>
<text xml:space="preserve" transform="matrix(1 0 -0 1 -.0000038146974 137.63)" font-size="5.9776" font-family="CMMI6" font-style="italic"><tspan y="-119.838" x="40.637 44.964784">&#x2202;a</tspan></text>
<text xml:space="preserve" transform="matrix(1 0 -0 1 -.0000038146974 137.63)" font-size="4.9813" font-family="CMMI5" font-style="italic"><tspan y="-122.347" x="48.996004">l</tspan></text>
<text xml:space="preserve" transform="matrix(1 0 -0 1 -.0000038146974 137.63)" font-size="4.9813" font-family="CMR5"><tspan y="-117.542" x="48.996004">1</tspan></text>
<path transform="matrix(1,0,0,-1,40.636999,20.685006)" stroke-width=".398" stroke-linecap="butt" stroke-miterlimit="10" stroke-linejoin="miter" fill="none" stroke="#000000" d="M0 0H12.247"/>
<text xml:space="preserve" transform="matrix(1 0 -0 1 -.0000038146974 137.63)" font-size="5.9776" font-family="CMMI6" font-style="italic"><tspan y="-111.661" x="40.674 45.00178">&#x2202;W</tspan></text>
<path transform="matrix(1,0,0,-1,46.76,67.34701)" stroke-width=".79701" stroke-linecap="butt" stroke-miterlimit="10" stroke-linejoin="miter" fill="none" stroke="#000000" d="M73.12677-37.46002H148.04683V37.46004H73.12677Z"/>
<path transform="matrix(1,0,0,-1,132.439,42.441007)" d="M-12.45346-12.45346H12.453481V12.453481H-12.45346Z" fill="#ffffff"/>
<path transform="matrix(1,0,0,-1,132.439,42.441007)" stroke-width=".19925" stroke-linecap="butt" stroke-miterlimit="10" stroke-linejoin="miter" fill="none" stroke="#000000" d="M-12.45346-12.45346H12.453481V12.453481H-12.45346Z"/>
<text xml:space="preserve" transform="matrix(1 0 -0 1 0 137.63)" font-size="6.9738" font-family="CMMI7" font-style="italic"><tspan y="-96.713" x="125.993 130.67241">&#x2202;a</tspan></text>
<text xml:space="preserve" transform="matrix(1 0 -0 1 0 137.63)" font-size="4.9813" font-family="CMMI5" font-style="italic"><tspan y="-99.718997" x="134.998">l</tspan></text>
<text xml:space="preserve" transform="matrix(1 0 -0 1 0 137.63)" font-size="4.9813" font-family="CMR5"><tspan y="-94.71999" x="134.998">2</tspan></text>
<path transform="matrix(1,0,0,-1,123.577,43.507005)" stroke-width=".398" stroke-linecap="butt" stroke-miterlimit="10" stroke-linejoin="miter" fill="none" stroke="#000000" d="M0 0H17.725"/>
<text xml:space="preserve" transform="matrix(1 0 -0 1 0 137.63)" font-size="6.9738" font-family="CMMI7" font-style="italic"><tspan y="-88.196" x="123.577 128.25643">&#x2202;w</tspan></text>
<text xml:space="preserve" transform="matrix(1 0 -0 1 0 137.63)" font-size="4.9813" font-family="CMR5"><tspan y="-87.2" x="134.02301 137.41529">11</tspan></text>
<path transform="matrix(1,0,0,-1,157.346,42.441007)" d="M-12.45346-12.45346H12.453481V12.453481H-12.45346Z" fill="#ffffff"/>
<path transform="matrix(1,0,0,-1,157.346,42.441007)" stroke-width=".19925" stroke-linecap="butt" stroke-miterlimit="10" stroke-linejoin="miter" fill="none" stroke="#000000" d="M-12.45346-12.45346H12.453481V12.453481H-12.45346Z"/>
<text xml:space="preserve" transform="matrix(1 0 -0 1 0 137.63)" font-size="9.9626" font-family="CMSY10" font-style="italic"><tspan y="-92.975" x="151.534 155.96736 160.39076">&#x00b7;&#x00b7;&#x00b7;</tspan></text>
<path transform="matrix(1,0,0,-1,182.252,42.441007)" d="M-12.45346-12.45346H12.453481V12.453481H-12.45346Z" fill="#ffffff"/>
<path transform="matrix(1,0,0,-1,182.252,42.441007)" stroke-width=".19925" stroke-linecap="butt" stroke-miterlimit="10" stroke-linejoin="miter" fill="none" stroke="#000000" d="M-12.45346-12.45346H12.453481V12.453481H-12.45346Z"/>
<text xml:space="preserve" transform="matrix(1 0 -0 1 0 137.63)" font-size="6.9738" font-family="CMMI7" font-style="italic"><tspan y="-96.713" x="175.806 180.48542">&#x2202;a</tspan></text>
<text xml:space="preserve" transform="matrix(1 0 -0 1 0 137.63)" font-size="4.9813" font-family="CMMI5" font-style="italic"><tspan y="-99.718997" x="184.811">l</tspan></text>
<text xml:space="preserve" transform="matrix(1 0 -0 1 0 137.63)" font-size="4.9813" font-family="CMR5"><tspan y="-94.71999" x="184.811">2</tspan></text>
<path transform="matrix(1,0,0,-1,172.891,43.507005)" stroke-width=".398" stroke-linecap="butt" stroke-miterlimit="10" stroke-linejoin="miter" fill="none" stroke="#000000" d="M0 0H18.723"/>
<text xml:space="preserve" transform="matrix(1 0 -0 1 0 137.63)" font-size="6.9738" font-family="CMMI7" font-style="italic"><tspan y="-88.196" x="172.891 177.57042">&#x2202;w</tspan></text>
<text xml:space="preserve" transform="matrix(1 0 -0 1 0 137.63)" font-size="4.9813" font-family="CMR5"><tspan y="-87.2" x="183.33802">1</tspan></text>
<text xml:space="preserve" transform="matrix(1 0 -0 1 0 137.63)" font-size="4.9813" font-family="CMMI5" font-style="italic"><tspan y="-87.2" x="186.72801">n</tspan></text>
<path transform="matrix(1,0,0,-1,132.439,67.34701)" d="M-12.45346-12.45346H12.453481V12.453481H-12.45346Z" fill="#ffffff"/>
<path transform="matrix(1,0,0,-1,132.439,67.34701)" stroke-width=".19925" stroke-linecap="butt" stroke-miterlimit="10" stroke-linejoin="miter" fill="none" stroke="#000000" d="M-12.45346-12.45346H12.453481V12.453481H-12.45346Z"/>
<text xml:space="preserve" transform="matrix(1 0 -0 1 0 137.63)" font-size="9.9626" font-family="CMR10"><tspan y="-70.753" x="131.055">.</tspan><tspan y="-66.768" x="131.055">.</tspan><tspan y="-62.782999" x="131.055">.</tspan></text>
<path transform="matrix(1,0,0,-1,157.346,67.34701)" d="M-12.45346-12.45346H12.453481V12.453481H-12.45346Z" fill="#ffffff"/>
<path transform="matrix(1,0,0,-1,157.346,67.34701)" stroke-width=".19925" stroke-linecap="butt" stroke-miterlimit="10" stroke-linejoin="miter" fill="none" stroke="#000000" d="M-12.45346-12.45346H12.453481V12.453481H-12.45346Z"/>
<text xml:space="preserve" transform="matrix(1 0 -0 1 0 137.63)" font-size="9.9626" font-family="CMR10"><tspan y="-69.757" x="152.088">.</tspan><tspan y="-66.768009" x="155.96199">.</tspan><tspan y="-63.779008" x="159.83599">.</tspan></text>
<path transform="matrix(1,0,0,-1,182.252,67.34701)" d="M-12.45346-12.45346H12.453481V12.453481H-12.45346Z" fill="#ffffff"/>
<path transform="matrix(1,0,0,-1,182.252,67.34701)" stroke-width=".19925" stroke-linecap="butt" stroke-miterlimit="10" stroke-linejoin="miter" fill="none" stroke="#000000" d="M-12.45346-12.45346H12.453481V12.453481H-12.45346Z"/>
<text xml:space="preserve" transform="matrix(1 0 -0 1 0 137.63)" font-size="9.9626" font-family="CMR10"><tspan y="-70.753" x="180.869">.</tspan><tspan y="-66.768" x="180.869">.</tspan><tspan y="-62.782999" x="180.869">.</tspan></text>
<path transform="matrix(1,0,0,-1,132.439,92.254009)" d="M-12.45346-12.45346H12.453481V12.453481H-12.45346Z" fill="#ffffff"/>
<path transform="matrix(1,0,0,-1,132.439,92.254009)" stroke-width=".19925" stroke-linecap="butt" stroke-miterlimit="10" stroke-linejoin="miter" fill="none" stroke="#000000" d="M-12.45346-12.45346H12.453481V12.453481H-12.45346Z"/>
<text xml:space="preserve" transform="matrix(1 0 -0 1 0 137.63)" font-size="6.9738" font-family="CMMI7" font-style="italic"><tspan y="-46.9" x="125.993 130.67241">&#x2202;a</tspan></text>
<text xml:space="preserve" transform="matrix(1 0 -0 1 0 137.63)" font-size="4.9813" font-family="CMMI5" font-style="italic"><tspan y="-49.906003" x="134.998">l</tspan></text>
<text xml:space="preserve" transform="matrix(1 0 -0 1 0 137.63)" font-size="4.9813" font-family="CMR5"><tspan y="-44.907" x="134.998">2</tspan></text>
<path transform="matrix(1,0,0,-1,122.213,93.32101)" stroke-width=".398" stroke-linecap="butt" stroke-miterlimit="10" stroke-linejoin="miter" fill="none" stroke="#000000" d="M0 0H20.452"/>
<text xml:space="preserve" transform="matrix(1 0 -0 1 0 137.63)" font-size="6.9738" font-family="CMMI7" font-style="italic"><tspan y="-38.383" x="122.213 126.89242">&#x2202;w</tspan></text>
<text xml:space="preserve" transform="matrix(1 0 -0 1 0 137.63)" font-size="4.9813" font-family="CMMI5" font-style="italic"><tspan y="-37.387" x="132.66">m</tspan></text>
<text xml:space="preserve" transform="matrix(1 0 -0 1 0 137.63)" font-size="4.9813" font-family="CMR5"><tspan y="-37.387" x="138.77701">1</tspan></text>
<path transform="matrix(1,0,0,-1,157.346,92.254009)" d="M-12.45346-12.45346H12.453481V12.453481H-12.45346Z" fill="#ffffff"/>
<path transform="matrix(1,0,0,-1,157.346,92.254009)" stroke-width=".19925" stroke-linecap="butt" stroke-miterlimit="10" stroke-linejoin="miter" fill="none" stroke="#000000" d="M-12.45346-12.45346H12.453481V12.453481H-12.45346Z"/>
<text xml:space="preserve" transform="matrix(1 0 -0 1 0 137.63)" font-size="9.9626" font-family="CMSY10" font-style="italic"><tspan y="-43.162" x="151.534 155.96736 160.39076">&#x00b7;&#x00b7;&#x00b7;</tspan></text>
<path transform="matrix(1,0,0,-1,182.252,92.254009)" d="M-12.45346-12.45346H12.453481V12.453481H-12.45346Z" fill="#ffffff"/>
<path transform="matrix(1,0,0,-1,182.252,92.254009)" stroke-width=".19925" stroke-linecap="butt" stroke-miterlimit="10" stroke-linejoin="miter" fill="none" stroke="#000000" d="M-12.45346-12.45346H12.453481V12.453481H-12.45346Z"/>
<text xml:space="preserve" transform="matrix(1 0 -0 1 0 137.63)" font-size="6.9738" font-family="CMMI7" font-style="italic"><tspan y="-46.9" x="175.806 180.48542">&#x2202;a</tspan></text>
<text xml:space="preserve" transform="matrix(1 0 -0 1 0 137.63)" font-size="4.9813" font-family="CMMI5" font-style="italic"><tspan y="-49.906003" x="184.811">l</tspan></text>
<text xml:space="preserve" transform="matrix(1 0 -0 1 0 137.63)" font-size="4.9813" font-family="CMR5"><tspan y="-44.907" x="184.811">2</tspan></text>
<path transform="matrix(1,0,0,-1,171.527,93.32101)" stroke-width=".398" stroke-linecap="butt" stroke-miterlimit="10" stroke-linejoin="miter" fill="none" stroke="#000000" d="M0 0H21.45"/>
<text xml:space="preserve" transform="matrix(1 0 -0 1 0 137.63)" font-size="6.9738" font-family="CMMI7" font-style="italic"><tspan y="-38.383" x="171.527 176.21338">&#x2202;w</tspan></text>
<text xml:space="preserve" transform="matrix(1 0 -0 1 0 137.63)" font-size="4.9813" font-family="CMMI5" font-style="italic"><tspan y="-37.387" x="181.974 188.09104">mn</tspan></text>
<text xml:space="preserve" transform="matrix(1 0 -0 1 0 137.63)" font-size="5.9776" font-family="CMMI6" font-style="italic"><tspan y="-119.838" x="151.222 155.54979">&#x2202;a</tspan></text>
<text xml:space="preserve" transform="matrix(1 0 -0 1 0 137.63)" font-size="4.9813" font-family="CMMI5" font-style="italic"><tspan y="-122.347" x="159.581">l</tspan></text>
<text xml:space="preserve" transform="matrix(1 0 -0 1 0 137.63)" font-size="4.9813" font-family="CMR5"><tspan y="-117.542" x="159.581">2</tspan></text>
<path transform="matrix(1,0,0,-1,151.222,20.685006)" stroke-width=".398" stroke-linecap="butt" stroke-miterlimit="10" stroke-linejoin="miter" fill="none" stroke="#000000" d="M0 0H12.247"/>
<text xml:space="preserve" transform="matrix(1 0 -0 1 0 137.63)" font-size="5.9776" font-family="CMMI6" font-style="italic"><tspan y="-111.661" x="151.259 155.58679">&#x2202;W</tspan></text>
<path transform="matrix(1,0,0,-1,46.76,67.34701)" stroke-width=".79701" stroke-linecap="butt" stroke-miterlimit="10" stroke-linejoin="miter" fill="none" stroke="#000000" d="M186.70244-37.46002H261.6225V37.46004H186.70244Z"/>
<path transform="matrix(1,0,0,-1,246.01299,42.441007)" d="M-12.45346-12.45346H12.453481V12.453481H-12.45346Z" fill="#ffffff"/>
<path transform="matrix(1,0,0,-1,246.01299,42.441007)" stroke-width=".19925" stroke-linecap="butt" stroke-miterlimit="10" stroke-linejoin="miter" fill="none" stroke="#000000" d="M-12.45346-12.45346H12.453481V12.453481H-12.45346Z"/>
<text xml:space="preserve" transform="matrix(1 0 -0 1 -.000015258789 137.63)" font-size="6.9738" font-family="CMMI7" font-style="italic"><tspan y="-96.713" x="239.567 244.24642">&#x2202;a</tspan></text>
<text xml:space="preserve" transform="matrix(1 0 -0 1 -.000015258789 137.63)" font-size="4.9813" font-family="CMMI5" font-style="italic"><tspan y="-99.718997" x="248.572">l</tspan></text>
<text xml:space="preserve" transform="matrix(1 0 -0 1 -.000015258789 137.63)" font-size="4.9813" font-family="CMR5"><tspan y="-94.71999" x="248.572">3</tspan></text>
<path transform="matrix(1,0,0,-1,237.15099,43.507005)" stroke-width=".398" stroke-linecap="butt" stroke-miterlimit="10" stroke-linejoin="miter" fill="none" stroke="#000000" d="M0 0H17.725"/>
<text xml:space="preserve" transform="matrix(1 0 -0 1 -.000015258789 137.63)" font-size="6.9738" font-family="CMMI7" font-style="italic"><tspan y="-88.196" x="237.151 241.83042">&#x2202;w</tspan></text>
<text xml:space="preserve" transform="matrix(1 0 -0 1 -.000015258789 137.63)" font-size="4.9813" font-family="CMR5"><tspan y="-87.2" x="247.598 250.99028">11</tspan></text>
<path transform="matrix(1,0,0,-1,270.91999,42.441007)" d="M-12.45346-12.45346H12.453481V12.453481H-12.45346Z" fill="#ffffff"/>
<path transform="matrix(1,0,0,-1,270.91999,42.441007)" stroke-width=".19925" stroke-linecap="butt" stroke-miterlimit="10" stroke-linejoin="miter" fill="none" stroke="#000000" d="M-12.45346-12.45346H12.453481V12.453481H-12.45346Z"/>
<text xml:space="preserve" transform="matrix(1 0 -0 1 -.000030517579 137.63)" font-size="9.9626" font-family="CMSY10" font-style="italic"><tspan y="-92.975" x="265.108 269.54136 273.96473">&#x00b7;&#x00b7;&#x00b7;</tspan></text>
<path transform="matrix(1,0,0,-1,295.827,42.441007)" d="M-12.45346-12.45346H12.453481V12.453481H-12.45346Z" fill="#ffffff"/>
<path transform="matrix(1,0,0,-1,295.827,42.441007)" stroke-width=".19925" stroke-linecap="butt" stroke-miterlimit="10" stroke-linejoin="miter" fill="none" stroke="#000000" d="M-12.45346-12.45346H12.453481V12.453481H-12.45346Z"/>
<text xml:space="preserve" transform="matrix(1 0 -0 1 0 137.63)" font-size="6.9738" font-family="CMMI7" font-style="italic"><tspan y="-96.713" x="289.38 294.05946">&#x2202;a</tspan></text>
<text xml:space="preserve" transform="matrix(1 0 -0 1 0 137.63)" font-size="4.9813" font-family="CMMI5" font-style="italic"><tspan y="-99.718997" x="298.385">l</tspan></text>
<text xml:space="preserve" transform="matrix(1 0 -0 1 0 137.63)" font-size="4.9813" font-family="CMR5"><tspan y="-94.71999" x="298.385">3</tspan></text>
<path transform="matrix(1,0,0,-1,286.465,43.507005)" stroke-width=".398" stroke-linecap="butt" stroke-miterlimit="10" stroke-linejoin="miter" fill="none" stroke="#000000" d="M0 0H18.723"/>
<text xml:space="preserve" transform="matrix(1 0 -0 1 0 137.63)" font-size="6.9738" font-family="CMMI7" font-style="italic"><tspan y="-88.196" x="286.465 291.1514">&#x2202;w</tspan></text>
<text xml:space="preserve" transform="matrix(1 0 -0 1 0 137.63)" font-size="4.9813" font-family="CMR5"><tspan y="-87.2" x="296.912">1</tspan></text>
<text xml:space="preserve" transform="matrix(1 0 -0 1 0 137.63)" font-size="4.9813" font-family="CMMI5" font-style="italic"><tspan y="-87.2" x="300.302">n</tspan></text>
<path transform="matrix(1,0,0,-1,246.013,67.34701)" d="M-12.45346-12.45346H12.453481V12.453481H-12.45346Z" fill="#ffffff"/>
<path transform="matrix(1,0,0,-1,246.013,67.34701)" stroke-width=".19925" stroke-linecap="butt" stroke-miterlimit="10" stroke-linejoin="miter" fill="none" stroke="#000000" d="M-12.45346-12.45346H12.453481V12.453481H-12.45346Z"/>
<text xml:space="preserve" transform="matrix(1 0 -0 1 0 137.63)" font-size="9.9626" font-family="CMR10"><tspan y="-70.753" x="244.63">.</tspan><tspan y="-66.768" x="244.63">.</tspan><tspan y="-62.782999" x="244.63">.</tspan></text>
<path transform="matrix(1,0,0,-1,270.92,67.34701)" d="M-12.45346-12.45346H12.453481V12.453481H-12.45346Z" fill="#ffffff"/>
<path transform="matrix(1,0,0,-1,270.92,67.34701)" stroke-width=".19925" stroke-linecap="butt" stroke-miterlimit="10" stroke-linejoin="miter" fill="none" stroke="#000000" d="M-12.45346-12.45346H12.453481V12.453481H-12.45346Z"/>
<text xml:space="preserve" transform="matrix(1 0 -0 1 0 137.63)" font-size="9.9626" font-family="CMR10"><tspan y="-69.757" x="265.662">.</tspan><tspan y="-66.768009" x="269.53599">.</tspan><tspan y="-63.779008" x="273.41099">.</tspan></text>
<path transform="matrix(1,0,0,-1,295.82704,67.34701)" d="M-12.45346-12.45346H12.453481V12.453481H-12.45346Z" fill="#ffffff"/>
<path transform="matrix(1,0,0,-1,295.82704,67.34701)" stroke-width=".19925" stroke-linecap="butt" stroke-miterlimit="10" stroke-linejoin="miter" fill="none" stroke="#000000" d="M-12.45346-12.45346H12.453481V12.453481H-12.45346Z"/>
<text xml:space="preserve" transform="matrix(1 0 -0 1 .000030517579 137.63)" font-size="9.9626" font-family="CMR10"><tspan y="-70.753" x="294.443">.</tspan><tspan y="-66.768" x="294.443">.</tspan><tspan y="-62.782999" x="294.443">.</tspan></text>
<path transform="matrix(1,0,0,-1,246.01303,92.254009)" d="M-12.45346-12.45346H12.453481V12.453481H-12.45346Z" fill="#ffffff"/>
<path transform="matrix(1,0,0,-1,246.01303,92.254009)" stroke-width=".19925" stroke-linecap="butt" stroke-miterlimit="10" stroke-linejoin="miter" fill="none" stroke="#000000" d="M-12.45346-12.45346H12.453481V12.453481H-12.45346Z"/>
<text xml:space="preserve" transform="matrix(1 0 -0 1 .000030517579 137.63)" font-size="6.9738" font-family="CMMI7" font-style="italic"><tspan y="-46.9" x="239.567 244.24642">&#x2202;a</tspan></text>
<text xml:space="preserve" transform="matrix(1 0 -0 1 .000030517579 137.63)" font-size="4.9813" font-family="CMMI5" font-style="italic"><tspan y="-49.906003" x="248.572">l</tspan></text>
<text xml:space="preserve" transform="matrix(1 0 -0 1 .000030517579 137.63)" font-size="4.9813" font-family="CMR5"><tspan y="-44.907" x="248.572">3</tspan></text>
<path transform="matrix(1,0,0,-1,235.78704,93.32101)" stroke-width=".398" stroke-linecap="butt" stroke-miterlimit="10" stroke-linejoin="miter" fill="none" stroke="#000000" d="M0 0H20.452"/>
<text xml:space="preserve" transform="matrix(1 0 -0 1 .000030517579 137.63)" font-size="6.9738" font-family="CMMI7" font-style="italic"><tspan y="-38.383" x="235.787 240.47339">&#x2202;w</tspan></text>
<text xml:space="preserve" transform="matrix(1 0 -0 1 .000030517579 137.63)" font-size="4.9813" font-family="CMMI5" font-style="italic"><tspan y="-37.387" x="246.23401">m</tspan></text>
<text xml:space="preserve" transform="matrix(1 0 -0 1 .000030517579 137.63)" font-size="4.9813" font-family="CMR5"><tspan y="-37.387" x="252.35102">1</tspan></text>
<path transform="matrix(1,0,0,-1,270.92005,92.254009)" d="M-12.45346-12.45346H12.453481V12.453481H-12.45346Z" fill="#ffffff"/>
<path transform="matrix(1,0,0,-1,270.92005,92.254009)" stroke-width=".19925" stroke-linecap="butt" stroke-miterlimit="10" stroke-linejoin="miter" fill="none" stroke="#000000" d="M-12.45346-12.45346H12.453481V12.453481H-12.45346Z"/>
<text xml:space="preserve" transform="matrix(1 0 -0 1 .000030517579 137.63)" font-size="9.9626" font-family="CMSY10" font-style="italic"><tspan y="-43.162" x="265.109 269.54237 273.96574">&#x00b7;&#x00b7;&#x00b7;</tspan></text>
<path transform="matrix(1,0,0,-1,295.82707,92.254009)" d="M-12.45346-12.45346H12.453481V12.453481H-12.45346Z" fill="#ffffff"/>
<path transform="matrix(1,0,0,-1,295.82707,92.254009)" stroke-width=".19925" stroke-linecap="butt" stroke-miterlimit="10" stroke-linejoin="miter" fill="none" stroke="#000000" d="M-12.45346-12.45346H12.453481V12.453481H-12.45346Z"/>
<text xml:space="preserve" transform="matrix(1 0 -0 1 .000061035159 137.63)" font-size="6.9738" font-family="CMMI7" font-style="italic"><tspan y="-46.9" x="289.38 294.05946">&#x2202;a</tspan></text>
<text xml:space="preserve" transform="matrix(1 0 -0 1 .000061035159 137.63)" font-size="4.9813" font-family="CMMI5" font-style="italic"><tspan y="-49.906003" x="298.385">l</tspan></text>
<text xml:space="preserve" transform="matrix(1 0 -0 1 .000061035159 137.63)" font-size="4.9813" font-family="CMR5"><tspan y="-44.907" x="298.385">3</tspan></text>
<path transform="matrix(1,0,0,-1,285.10206,93.32101)" stroke-width=".398" stroke-linecap="butt" stroke-miterlimit="10" stroke-linejoin="miter" fill="none" stroke="#000000" d="M0 0H21.45"/>
<text xml:space="preserve" transform="matrix(1 0 -0 1 .000061035159 137.63)" font-size="6.9738" font-family="CMMI7" font-style="italic"><tspan y="-38.383" x="285.102 289.78144">&#x2202;w</tspan></text>
<text xml:space="preserve" transform="matrix(1 0 -0 1 .000061035159 137.63)" font-size="4.9813" font-family="CMMI5" font-style="italic"><tspan y="-37.387" x="295.54899 301.66603">mn</tspan></text>
<text xml:space="preserve" transform="matrix(1 0 -0 1 0 137.63)" font-size="5.9776" font-family="CMMI6" font-style="italic"><tspan y="-119.838" x="264.796 269.12379">&#x2202;a</tspan></text>
<text xml:space="preserve" transform="matrix(1 0 -0 1 0 137.63)" font-size="4.9813" font-family="CMMI5" font-style="italic"><tspan y="-122.347" x="273.155">l</tspan></text>
<text xml:space="preserve" transform="matrix(1 0 -0 1 0 137.63)" font-size="4.9813" font-family="CMR5"><tspan y="-117.542" x="273.155">3</tspan></text>
<path transform="matrix(1,0,0,-1,264.796,20.685006)" stroke-width=".398" stroke-linecap="butt" stroke-miterlimit="10" stroke-linejoin="miter" fill="none" stroke="#000000" d="M0 0H12.247"/>
<text xml:space="preserve" transform="matrix(1 0 -0 1 0 137.63)" font-size="5.9776" font-family="CMMI6" font-style="italic"><tspan y="-111.661" x="264.834 269.1618">&#x2202;W</tspan></text>
<path transform="matrix(1,0,0,-1,46.76,67.34701)" stroke-width=".79701" stroke-linecap="butt" stroke-miterlimit="10" stroke-linejoin="miter" fill="none" stroke="#000000" d="M-37.85852-47.8213H273.24903"/>
<path transform="matrix(1,0,0,-1,320.00904,115.168308)" stroke-width=".6376" stroke-linecap="round" stroke-linejoin="round" fill="none" stroke="#000000" d="M-1.55415 2.0722C-1.42464 1.29512 0 .1295 .38852 0 0-.1295-1.42464-1.29512-1.55415-2.0722"/>
<text xml:space="preserve" transform="matrix(1 0 -0 1 0 137.63)" font-size="9.9626" font-family="CMR10"><tspan y="-11.824" x="126.562 131.54329 135.96669 139.84215 142.61176 147.3141 152.2954 156.17086 158.94046 163.92176 172.78847 175.55808 181.09728 186.63648 191.05988">activationindex</tspan></text>
<text xml:space="preserve" transform="matrix(1 0 -0 1 0 137.63)" font-size="9.9626" font-family="CMMI10" font-style="italic"><tspan y="-11.824" x="199.621">i</tspan></text>
</svg>
