<svg xmlns="http://www.w3.org/2000/svg" xmlns:xlink="http://www.w3.org/1999/xlink" xmlns:inkscape="http://www.inkscape.org/namespaces/inkscape" version="1.1" width="383.03" height="277.49998" viewBox="0 0 383.03 277.49998">
<path transform="matrix(1,0,0,-1,141.19202,227.80097)" stroke-width=".79701" stroke-linecap="butt" stroke-miterlimit="10" stroke-linejoin="miter" fill="none" stroke="#000000" d="M-59.06815 0C-59.06815 14.34425-70.69615 25.97227-85.04042 25.97227-99.38469 25.97227-111.0127 14.34425-111.0127 0-111.0127-14.34425-99.38469-25.97227-85.04042-25.97227-70.69615-25.97227-59.06815-14.34425-59.06815 0ZM-85.04042 0"/>
<text xml:space="preserve" transform="matrix(1 0 -0 1 -118.929988 698.7899)" font-size="9.9626" font-family="CMMI10" font-style="italic"><tspan y="-472.828" x="156.569 162.41706">&#x2202;a</tspan></text>
<path transform="matrix(1,0,0,-1,37.639017,228.02393)" stroke-width=".398" stroke-linecap="butt" stroke-miterlimit="10" stroke-linejoin="miter" fill="none" stroke="#000000" d="M0 0H11.109"/>
<text xml:space="preserve" transform="matrix(1 0 -0 1 -118.929988 698.7899)" font-size="9.9626" font-family="CMMI10" font-style="italic"><tspan y="-462.232" x="157.064 162.91205">&#x2202;b</tspan></text>
<text xml:space="preserve" transform="matrix(1 0 -0 1 -118.929988 698.7899)" font-size="14.3462" font-family="CMR12"><tspan y="-467.179" x="172.858 187.77806">=0</tspan></text>
<path transform="matrix(1,0,0,-1,141.19202,227.80097)" stroke-width=".79701" stroke-linecap="butt" stroke-miterlimit="10" stroke-linejoin="miter" fill="none" stroke="#000000" d="M25.54662 85.04042C25.54662 99.14961 14.10918 110.58704 0 110.58704-14.10918 110.58704-25.54662 99.14961-25.54662 85.04042-25.54662 70.93124-14.10918 59.4938 0 59.4938 14.10918 59.4938 25.54662 70.93124 25.54662 85.04042ZM0 85.04042"/>
<text xml:space="preserve" transform="matrix(1 0 -0 1 -118.929988 698.7899)" font-size="9.9626" font-family="CMMI10" font-style="italic"><tspan y="-557.867" x="242.085 247.93306">&#x2202;c</tspan></text>
<path transform="matrix(1,0,0,-1,123.15502,142.98493)" stroke-width=".398" stroke-linecap="butt" stroke-miterlimit="10" stroke-linejoin="miter" fill="none" stroke="#000000" d="M0 0H10.154"/>
<text xml:space="preserve" transform="matrix(1 0 -0 1 -118.929988 698.7899)" font-size="9.9626" font-family="CMMI10" font-style="italic"><tspan y="-547.271" x="242.103 247.95105">&#x2202;b</tspan></text>
<text xml:space="preserve" transform="matrix(1 0 -0 1 -118.929988 698.7899)" font-size="14.3462" font-family="CMR12"><tspan y="-552.219" x="257.41999 272.34004">=1</tspan></text>
<path transform="matrix(1,0,0,-1,141.19202,227.80097)" stroke-width=".79701" stroke-linecap="butt" stroke-miterlimit="10" stroke-linejoin="miter" fill="none" stroke="#000000" d="M110.77238 170.08086C110.77238 184.29239 99.25197 195.81282 85.04042 195.81282 70.82889 195.81282 59.30846 184.29239 59.30846 170.08086 59.30846 155.86931 70.82889 144.34889 85.04042 144.34889 99.25197 144.34889 110.77238 155.86931 110.77238 170.08086ZM85.04042 170.08086"/>
<text xml:space="preserve" transform="matrix(1 0 -0 1 -118.92998 698.79)" font-size="9.9626" font-family="CMMI10" font-style="italic"><tspan y="-642.906" x="326.961 332.80903">&#x2202;e</tspan></text>
<path transform="matrix(1,0,0,-1,208.03102,57.945985)" stroke-width=".398" stroke-linecap="butt" stroke-miterlimit="10" stroke-linejoin="miter" fill="none" stroke="#000000" d="M0 0H10.482"/>
<text xml:space="preserve" transform="matrix(1 0 -0 1 -118.92998 698.79)" font-size="9.9626" font-family="CMMI10" font-style="italic"><tspan y="-632.311" x="327.143 332.99104">&#x2202;b</tspan></text>
<text xml:space="preserve" transform="matrix(1 0 -0 1 -118.92998 698.79)" font-size="14.3462" font-family="CMR12"><tspan y="-637.258" x="342.62303 357.54307">=5</tspan></text>
<path transform="matrix(1,0,0,-1,141.19202,227.80097)" stroke-width=".79701" stroke-linecap="butt" stroke-miterlimit="10" stroke-linejoin="miter" fill="none" stroke="#000000" d="M196.00765 85.04042C196.00765 99.35957 184.40001 110.96721 170.08086 110.96721 155.7617 110.96721 144.15406 99.35957 144.15406 85.04042 144.15406 70.72127 155.7617 59.11363 170.08086 59.11363 184.40001 59.11363 196.00765 70.72127 196.00765 85.04042ZM170.08086 85.04042"/>
<text xml:space="preserve" transform="matrix(1 0 -0 1 -118.92999 698.7899)" font-size="9.9626" font-family="CMMI10" font-style="italic"><tspan y="-557.867" x="411.727 417.575">&#x2202;d</tspan></text>
<path transform="matrix(1,0,0,-1,292.797,142.98493)" stroke-width=".398" stroke-linecap="butt" stroke-miterlimit="10" stroke-linejoin="miter" fill="none" stroke="#000000" d="M0 0H11.028"/>
<text xml:space="preserve" transform="matrix(1 0 -0 1 -118.92999 698.7899)" font-size="9.9626" font-family="CMMI10" font-style="italic"><tspan y="-547.271" x="412.182 418.03004">&#x2202;b</tspan></text>
<text xml:space="preserve" transform="matrix(1 0 -0 1 -118.92999 698.7899)" font-size="14.3462" font-family="CMR12"><tspan y="-552.219" x="427.936 442.85606">=1</tspan></text>
<path transform="matrix(1,0,0,-1,141.19202,227.80097)" stroke-width=".79701" stroke-linecap="butt" stroke-miterlimit="10" stroke-linejoin="miter" fill="none" stroke="#000000" d="M110.5666 0C110.5666 14.0979 99.13832 25.52618 85.04042 25.52618 70.94252 25.52618 59.51424 14.0979 59.51424 0 59.51424-14.0979 70.94252-25.52618 85.04042-25.52618 99.13832-25.52618 110.5666-14.0979 110.5666 0ZM85.04042 0"/>
<text xml:space="preserve" transform="matrix(1 0 -0 1 -118.92998 698.7899)" font-size="9.9626" font-family="CMMI10" font-style="italic"><tspan y="-472.828" x="327.143 332.99104">&#x2202;b</tspan></text>
<path transform="matrix(1,0,0,-1,208.21303,228.02393)" stroke-width=".398" stroke-linecap="butt" stroke-miterlimit="10" stroke-linejoin="miter" fill="none" stroke="#000000" d="M0 0H10.118"/>
<text xml:space="preserve" transform="matrix(1 0 -0 1 -118.92998 698.7899)" font-size="9.9626" font-family="CMMI10" font-style="italic"><tspan y="-462.232" x="327.143 332.99104">&#x2202;b</tspan></text>
<text xml:space="preserve" transform="matrix(1 0 -0 1 -118.92998 698.7899)" font-size="14.3462" font-family="CMR12"><tspan y="-467.179" x="342.44203 357.36207">=1</tspan></text>
<path transform="matrix(1,0,0,-1,141.19202,227.80097)" stroke-width="1.19553" stroke-linecap="butt" stroke-miterlimit="10" stroke-linejoin="miter" fill="none" stroke="#ff0000" d="M-66.39345 18.64697-21.99236 63.04805"/>
<path transform="matrix(.7071,-.7071,-.7071,-.7071,116.92847,167.0241)" d="M6.66628 0 1.93044 1.79556 3.5108 0 1.93044-1.79556Z"/>
<path transform="matrix(.7071,-.7071,-.7071,-.7071,116.92847,167.0241)" stroke-width="1.19553" stroke-linecap="butt" stroke-miterlimit="10" stroke-linejoin="miter" fill="none" stroke="#000000" d="M6.66628 0 1.93044 1.79556 3.5108 0 1.93044-1.79556Z"/>
<path transform="matrix(1,0,0,-1,141.19202,227.80097)" d="M-16.39745 42.6707C-16.39745 57.01497-28.02545 68.64297-42.36972 68.64297-56.71399 68.64297-68.342 57.01497-68.342 42.6707-68.342 28.32643-56.71399 16.69843-42.36972 16.69843-28.02545 16.69843-16.39745 28.32643-16.39745 42.6707ZM-42.36972 42.6707" fill="#ffffff"/>
<text xml:space="preserve" transform="matrix(1 0 -0 1 -118.92998 698.79)" font-size="9.9626" font-family="CMMI10" font-style="italic"><tspan y="-515.498" x="199.716 205.56406">&#x2202;c</tspan></text>
<path transform="matrix(1,0,0,-1,80.30902,185.354)" stroke-width=".398" stroke-linecap="butt" stroke-miterlimit="10" stroke-linejoin="miter" fill="none" stroke="#000000" d="M0 0H11.109"/>
<text xml:space="preserve" transform="matrix(1 0 -0 1 -118.92998 698.79)" font-size="9.9626" font-family="CMMI10" font-style="italic"><tspan y="-504.902" x="199.239 205.08705">&#x2202;a</tspan></text>
<text xml:space="preserve" transform="matrix(1 0 -0 1 -118.92998 698.79)" font-size="14.3462" font-family="CMR12"><tspan y="-509.849" x="215.528 230.44806">=1</tspan></text>
<path transform="matrix(1,0,0,-1,141.19202,227.80097)" stroke-width="1.19553" stroke-linecap="butt" stroke-miterlimit="10" stroke-linejoin="miter" fill="none" stroke="#ff0000" d="M66.7089 18.33153 21.99236 63.04805"/>
<path transform="matrix(-.7071,-.7071,-.7071,.7071,165.45557,167.0241)" d="M6.66628 0 1.93044 1.79556 3.5108 0 1.93044-1.79556Z"/>
<path transform="matrix(-.7071,-.7071,-.7071,.7071,165.45557,167.0241)" stroke-width="1.19553" stroke-linecap="butt" stroke-miterlimit="10" stroke-linejoin="miter" fill="none" stroke="#000000" d="M6.66628 0 1.93044 1.79556 3.5108 0 1.93044-1.79556Z"/>
<path transform="matrix(1,0,0,-1,141.19202,227.80097)" d="M68.07405 42.51299C68.07405 56.62216 56.63663 68.0596 42.52744 68.0596 28.41826 68.0596 16.98082 56.62216 16.98082 42.51299 16.98082 28.4038 28.41826 16.96635 42.52744 16.96635 56.63663 16.96635 68.07405 28.4038 68.07405 42.51299ZM42.52744 42.51299" fill="#ffffff"/>
<text xml:space="preserve" transform="matrix(1 0 -0 1 -118.92998 698.7899)" font-size="9.9626" font-family="CMMI10" font-style="italic"><tspan y="-515.34" x="284.612 290.46003">&#x2202;c</tspan></text>
<path transform="matrix(1,0,0,-1,165.68202,185.5119)" stroke-width=".398" stroke-linecap="butt" stroke-miterlimit="10" stroke-linejoin="miter" fill="none" stroke="#000000" d="M0 0H10.154"/>
<text xml:space="preserve" transform="matrix(1 0 -0 1 -118.92998 698.7899)" font-size="9.9626" font-family="CMMI10" font-style="italic"><tspan y="-504.745" x="284.63 290.47804">&#x2202;b</tspan></text>
<text xml:space="preserve" transform="matrix(1 0 -0 1 -118.92998 698.7899)" font-size="14.3462" font-family="CMR12"><tspan y="-509.692" x="299.947 314.86705">=1</tspan></text>
<path transform="matrix(1,0,0,-1,141.19202,227.80097)" stroke-width="1.19553" stroke-linecap="butt" stroke-miterlimit="10" stroke-linejoin="miter" fill="none" stroke="#ff0000" d="M18.34598 103.38641 62.91699 147.95743"/>
<path transform="matrix(.7071,-.7071,-.7071,-.7071,201.83783,82.11473)" d="M6.66628 0 1.93044 1.79556 3.5108 0 1.93044-1.79556Z"/>
<path transform="matrix(.7071,-.7071,-.7071,-.7071,201.83783,82.11473)" stroke-width="1.19553" stroke-linecap="butt" stroke-miterlimit="10" stroke-linejoin="miter" fill="none" stroke="#000000" d="M6.66628 0 1.93044 1.79556 3.5108 0 1.93044-1.79556Z"/>
<path transform="matrix(1,0,0,-1,141.19202,227.80097)" d="M68.18665 127.4951C68.18665 141.70665 56.66621 153.22707 42.45468 153.22707 28.24313 153.22707 16.72272 141.70665 16.72272 127.4951 16.72272 113.28357 28.24313 101.76314 42.45468 101.76314 56.66621 101.76314 68.18665 113.28357 68.18665 127.4951ZM42.45468 127.4951" fill="#ffffff"/>
<text xml:space="preserve" transform="matrix(1 0 -0 1 -118.92998 698.7899)" font-size="9.9626" font-family="CMMI10" font-style="italic"><tspan y="-600.321" x="284.376 290.22404">&#x2202;e</tspan></text>
<path transform="matrix(1,0,0,-1,165.44603,100.530948)" stroke-width=".398" stroke-linecap="butt" stroke-miterlimit="10" stroke-linejoin="miter" fill="none" stroke="#000000" d="M0 0H10.482"/>
<text xml:space="preserve" transform="matrix(1 0 -0 1 -118.92998 698.7899)" font-size="9.9626" font-family="CMMI10" font-style="italic"><tspan y="-589.726" x="284.54 290.38804">&#x2202;c</tspan></text>
<text xml:space="preserve" transform="matrix(1 0 -0 1 -118.92998 698.7899)" font-size="14.3462" font-family="CMR12"><tspan y="-594.67306" x="300.038 314.95805">=2</tspan></text>
<path transform="matrix(1,0,0,-1,141.19202,227.80097)" stroke-width="1.19553" stroke-linecap="butt" stroke-miterlimit="10" stroke-linejoin="miter" fill="none" stroke="#ff0000" d="M151.46605 103.65523 107.16385 147.95743"/>
<path transform="matrix(-.7071,-.7071,-.7071,.7071,250.62706,82.11473)" d="M6.66628 0 1.93044 1.79556 3.5108 0 1.93044-1.79556Z"/>
<path transform="matrix(-.7071,-.7071,-.7071,.7071,250.62706,82.11473)" stroke-width="1.19553" stroke-linecap="butt" stroke-miterlimit="10" stroke-linejoin="miter" fill="none" stroke="#000000" d="M6.66628 0 1.93044 1.79556 3.5108 0 1.93044-1.79556Z"/>
<path transform="matrix(1,0,0,-1,141.19202,227.80097)" d="M153.41855 127.62952C153.41855 141.94867 141.81092 153.5563 127.49176 153.5563 113.1726 153.5563 101.56497 141.94867 101.56497 127.62952 101.56497 113.31035 113.1726 101.70271 127.49176 101.70271 141.81092 101.70271 153.41855 113.31035 153.41855 127.62952ZM127.49176 127.62952" fill="#ffffff"/>
<text xml:space="preserve" transform="matrix(1 0 -0 1 -118.92998 698.79)" font-size="9.9626" font-family="CMMI10" font-style="italic"><tspan y="-600.456" x="369.412 375.26">&#x2202;e</tspan></text>
<path transform="matrix(1,0,0,-1,250.20903,100.395999)" stroke-width=".398" stroke-linecap="butt" stroke-miterlimit="10" stroke-linejoin="miter" fill="none" stroke="#000000" d="M0 0H11.028"/>
<text xml:space="preserve" transform="matrix(1 0 -0 1 -118.92998 698.79)" font-size="9.9626" font-family="CMMI10" font-style="italic"><tspan y="-589.86" x="369.139 374.98704">&#x2202;d</tspan></text>
<text xml:space="preserve" transform="matrix(1 0 -0 1 -118.92998 698.79)" font-size="14.3462" font-family="CMR12"><tspan y="-594.807" x="385.34703 400.26707">=3</tspan></text>
<path transform="matrix(1,0,0,-1,141.19202,227.80097)" stroke-width="1.19553" stroke-linecap="butt" stroke-miterlimit="10" stroke-linejoin="miter" fill="none" stroke="#ff0000" d="M103.37195 18.33153 147.81967 62.77924"/>
<path transform="matrix(.7071,-.7071,-.7071,-.7071,286.74049,167.29293)" d="M6.66628 0 1.93044 1.79556 3.5108 0 1.93044-1.79556Z"/>
<path transform="matrix(.7071,-.7071,-.7071,-.7071,286.74049,167.29293)" stroke-width="1.19553" stroke-linecap="butt" stroke-miterlimit="10" stroke-linejoin="miter" fill="none" stroke="#000000" d="M6.66628 0 1.93044 1.79556 3.5108 0 1.93044-1.79556Z"/>
<path transform="matrix(1,0,0,-1,141.19202,227.80097)" d="M153.34578 42.37856C153.34578 56.69772 141.73815 68.30536 127.41899 68.30536 113.09984 68.30536 101.4922 56.69772 101.4922 42.37856 101.4922 28.0594 113.09984 16.45177 127.41899 16.45177 141.73815 16.45177 153.34578 28.0594 153.34578 42.37856ZM127.41899 42.37856" fill="#ffffff"/>
<text xml:space="preserve" transform="matrix(1 0 -0 1 -118.92998 698.79)" font-size="9.9626" font-family="CMMI10" font-style="italic"><tspan y="-515.206" x="369.066 374.91404">&#x2202;d</tspan></text>
<path transform="matrix(1,0,0,-1,250.13603,185.646)" stroke-width=".398" stroke-linecap="butt" stroke-miterlimit="10" stroke-linejoin="miter" fill="none" stroke="#000000" d="M0 0H11.028"/>
<text xml:space="preserve" transform="matrix(1 0 -0 1 -118.92998 698.79)" font-size="9.9626" font-family="CMMI10" font-style="italic"><tspan y="-504.61" x="369.521 375.36903">&#x2202;b</tspan></text>
<text xml:space="preserve" transform="matrix(1 0 -0 1 -118.92998 698.79)" font-size="14.3462" font-family="CMR12"><tspan y="-509.55699" x="385.274 400.19404">=1</tspan></text>
<text xml:space="preserve" transform="matrix(1 0 -0 1 -118.92999 698.79)" font-size="9.9626" font-family="CMR10"><tspan y="-89.365" x="303.133">1</tspan></text>
</svg>
